program_change channel=0 program=0 time=0
control_change channel=0 control=7 value=100 time=0
control_change channel=0 control=10 value=64 time=0
control_change channel=0 control=91 value=127 time=0
program_change channel=0 program=0 time=0
control_change channel=0 control=7 value=100 time=0
control_change channel=0 control=10 value=64 time=0
control_change channel=0 control=64 value=127 time=0
control_change channel=0 control=91 value=127 time=0
program_change channel=2 program=0 time=0
control_change channel=2 control=7 value=110 time=0
control_change channel=2 control=10 value=64 time=0
program_change channel=3 program=0 time=0
control_change channel=3 control=7 value=110 time=0
control_change channel=3 control=10 value=64 time=0
program_change channel=4 program=0 time=0
control_change channel=4 control=7 value=100 time=0
control_change channel=4 control=10 value=64 time=0
program_change channel=5 program=0 time=0
control_change channel=5 control=7 value=100 time=0
control_change channel=5 control=10 value=64 time=0
note_on channel=0 note=60 velocity=61 time=0.00168918958333
note_on channel=0 note=64 velocity=57 time=0.20270275
note_on channel=0 note=67 velocity=56 time=0.20270275
note_on channel=0 note=67 velocity=0 time=0.20270275
note_on channel=0 note=72 velocity=60 time=0
note_on channel=0 note=72 velocity=0 time=0.00165562916667
note_on channel=0 note=76 velocity=63 time=0
note_on channel=0 note=76 velocity=0 time=0.17880795
note_on channel=0 note=67 velocity=50 time=0.00168918958333
note_on channel=0 note=67 velocity=0 time=0.20270275
note_on channel=0 note=72 velocity=47 time=0
note_on channel=0 note=72 velocity=0 time=0.20270275
note_on channel=0 note=76 velocity=47 time=0
note_on channel=0 note=76 velocity=0 time=0.20270275
note_on channel=0 note=64 velocity=0 time=0
note_on channel=0 note=60 velocity=0 time=0
note_on channel=0 note=60 velocity=62 time=0
note_on channel=0 note=64 velocity=57 time=0.20270275
note_on channel=0 note=67 velocity=56 time=0.20270275
note_on channel=0 note=67 velocity=0 time=0.20270275
note_on channel=0 note=72 velocity=60 time=0
note_on channel=0 note=72 velocity=0 time=0.20270275
note_on channel=0 note=76 velocity=62 time=0
note_on channel=0 note=76 velocity=0 time=0.182432475
note_on channel=0 note=67 velocity=50 time=0.00166666666667
note_on channel=0 note=67 velocity=0 time=0.2
note_on channel=0 note=72 velocity=48 time=0
note_on channel=0 note=72 velocity=0 time=0.2
note_on channel=0 note=76 velocity=48 time=0
control_change channel=0 control=91 value=127 time=0
control_change channel=0 control=91 value=127 time=0
note_on channel=0 note=76 velocity=0 time=0.00168918958333
note_on channel=0 note=64 velocity=0 time=0
note_on channel=0 note=60 velocity=0 time=0
note_on channel=0 note=60 velocity=65 time=0
control_change channel=0 control=64 value=0 time=0.01520270625
control_change channel=0 control=64 value=127 time=0.1621622
note_on channel=0 note=62 velocity=60 time=0.02533784375
note_on channel=0 note=69 velocity=56 time=0.20270275
note_on channel=0 note=69 velocity=0 time=0.0016447375
note_on channel=0 note=74 velocity=60 time=0
note_on channel=0 note=74 velocity=0 time=0.00160256458333
note_on channel=0 note=77 velocity=65 time=0
note_on channel=0 note=77 velocity=0 time=0.173076975
note_on channel=0 note=69 velocity=51 time=0.0016447375
note_on channel=0 note=69 velocity=0 time=0.1973685
note_on channel=0 note=74 velocity=50 time=0
note_on channel=0 note=74 velocity=0 time=0.1973685
note_on channel=0 note=77 velocity=50 time=0
note_on channel=0 note=77 velocity=0 time=0.00165562916667
note_on channel=0 note=62 velocity=0 time=0
note_on channel=0 note=60 velocity=0 time=0
note_on channel=0 note=60 velocity=65 time=0
note_on channel=0 note=62 velocity=60 time=0.1986755
note_on channel=0 note=69 velocity=58 time=0.1986755
note_on channel=0 note=69 velocity=0 time=0.00162337708333
note_on channel=0 note=74 velocity=60 time=0
note_on channel=0 note=74 velocity=0 time=0.00158227916667
note_on channel=0 note=77 velocity=65 time=0
note_on channel=0 note=77 velocity=0 time=0.17088615
note_on channel=0 note=69 velocity=52 time=0.00162337708333
note_on channel=0 note=69 velocity=0 time=0.19480525
note_on channel=0 note=74 velocity=50 time=0
note_on channel=0 note=74 velocity=0 time=0.00168918958333
note_on channel=0 note=77 velocity=50 time=0
control_change channel=0 control=91 value=127 time=0
control_change channel=0 control=91 value=127 time=0
note_on channel=0 note=77 velocity=0 time=0.00167785208333
note_on channel=0 note=62 velocity=0 time=0
note_on channel=0 note=60 velocity=0 time=0
note_on channel=0 note=59 velocity=65 time=0
control_change channel=0 control=64 value=0 time=0.0134228166667
control_change channel=0 control=64 value=127 time=0.127516758333
note_on channel=0 note=62 velocity=60 time=0.060402675
note_on channel=0 note=67 velocity=56 time=0.20134225
note_on channel=0 note=67 velocity=0 time=0.00162337708333
note_on channel=0 note=74 velocity=60 time=0
note_on channel=0 note=74 velocity=0 time=0.0015625
note_on channel=0 note=77 velocity=65 time=0
note_on channel=0 note=77 velocity=0 time=0.16875
note_on channel=0 note=67 velocity=51 time=0.00162337708333
note_on channel=0 note=67 velocity=0 time=0.19480525
note_on channel=0 note=74 velocity=50 time=0
note_on channel=0 note=74 velocity=0 time=0.00162337708333
note_on channel=0 note=77 velocity=50 time=0
note_on channel=0 note=77 velocity=0 time=0.00167785208333
note_on channel=0 note=62 velocity=0 time=0
note_on channel=0 note=59 velocity=0 time=0
note_on channel=0 note=59 velocity=65 time=0
note_on channel=0 note=62 velocity=60 time=0.20134225
note_on channel=0 note=67 velocity=56 time=0.20134225
note_on channel=0 note=67 velocity=0 time=0.0016447375
note_on channel=0 note=74 velocity=60 time=0
note_on channel=0 note=74 velocity=0 time=0.00160256458333
note_on channel=0 note=77 velocity=65 time=0
note_on channel=0 note=77 velocity=0 time=0.173076975
note_on channel=0 note=67 velocity=52 time=0.0016447375
note_on channel=0 note=67 velocity=0 time=0.1973685
note_on channel=0 note=74 velocity=50 time=0
note_on channel=0 note=74 velocity=0 time=0.0017241375
note_on channel=0 note=77 velocity=50 time=0
control_change channel=0 control=91 value=127 time=0
control_change channel=0 control=91 value=127 time=0
note_on channel=0 note=77 velocity=0 time=0.0016447375
note_on channel=0 note=62 velocity=0 time=0
note_on channel=0 note=59 velocity=0 time=0
note_on channel=0 note=60 velocity=61 time=0
control_change channel=0 control=64 value=0 time=0.0131579
control_change channel=0 control=64 value=127 time=0.148026375
note_on channel=0 note=64 velocity=57 time=0.036184225
note_on channel=0 note=67 velocity=53 time=0.1973685
note_on channel=0 note=67 velocity=0 time=0.1973685
note_on channel=0 note=72 velocity=55 time=0
note_on channel=0 note=72 velocity=0 time=0.00159235625
note_on channel=0 note=76 velocity=60 time=0
note_on channel=0 note=76 velocity=0 time=0.171974475
note_on channel=0 note=67 velocity=50 time=0.0016447375
note_on channel=0 note=67 velocity=0 time=0.1973685
note_on channel=0 note=72 velocity=47 time=0
note_on channel=0 note=72 velocity=0 time=0.00170068125
note_on channel=0 note=76 velocity=47 time=0
note_on channel=0 note=76 velocity=0 time=0.0016447375
note_on channel=0 note=64 velocity=0 time=0
note_on channel=0 note=60 velocity=0 time=0
note_on channel=0 note=60 velocity=62 time=0
note_on channel=0 note=64 velocity=57 time=0.1973685
note_on channel=0 note=67 velocity=55 time=0.1973685
note_on channel=0 note=67 velocity=0 time=0.1973685
note_on channel=0 note=72 velocity=57 time=0
note_on channel=0 note=72 velocity=0 time=0.00160256458333
note_on channel=0 note=76 velocity=61 time=0
note_on channel=0 note=76 velocity=0 time=0.173076975
note_on channel=0 note=67 velocity=50 time=0.0016447375
note_on channel=0 note=67 velocity=0 time=0.1973685
note_on channel=0 note=72 velocity=48 time=0
note_on channel=0 note=72 velocity=0 time=0.1973685
note_on channel=0 note=76 velocity=48 time=0
control_change channel=0 control=91 value=127 time=0
control_change channel=0 control=91 value=127 time=0
note_on channel=0 note=76 velocity=0 time=0.00168918958333
note_on channel=0 note=64 velocity=0 time=0
note_on channel=0 note=60 velocity=0 time=0
note_on channel=0 note=60 velocity=67 time=0
control_change channel=0 control=64 value=0 time=0.0118243270833
control_change channel=0 control=64 value=127 time=0.165540579167
note_on channel=0 note=64 velocity=62 time=0.02533784375
note_on channel=0 note=69 velocity=61 time=0.20270275
note_on channel=0 note=69 velocity=0 time=0.0016447375
note_on channel=0 note=76 velocity=66 time=0
note_on channel=0 note=76 velocity=0 time=0.00160256458333
note_on channel=0 note=81 velocity=70 time=0
note_on channel=0 note=81 velocity=0 time=0.173076975
note_on channel=0 note=69 velocity=55 time=0.0016339875
note_on channel=0 note=69 velocity=0 time=0.1960785
note_on channel=0 note=76 velocity=51 time=0
note_on channel=0 note=76 velocity=0 time=0.1960785
note_on channel=0 note=81 velocity=51 time=0
note_on channel=0 note=81 velocity=0 time=0.00168918958333
note_on channel=0 note=64 velocity=0 time=0
note_on channel=0 note=60 velocity=0 time=0
note_on channel=0 note=60 velocity=68 time=0
note_on channel=0 note=64 velocity=62 time=0.20270275
note_on channel=0 note=69 velocity=61 time=0.20270275
note_on channel=0 note=69 velocity=0 time=0.0016339875
note_on channel=0 note=76 velocity=65 time=0
note_on channel=0 note=76 velocity=0 time=0.00160256458333
note_on channel=0 note=81 velocity=68 time=0
note_on channel=0 note=81 velocity=0 time=0.173076975
note_on channel=0 note=69 velocity=55 time=0.0016339875
note_on channel=0 note=69 velocity=0 time=0.1960785
note_on channel=0 note=76 velocity=52 time=0
note_on channel=0 note=76 velocity=0 time=0.00167785208333
note_on channel=0 note=81 velocity=52 time=0
control_change channel=0 control=91 value=127 time=0
control_change channel=0 control=91 value=127 time=0
note_on channel=0 note=81 velocity=0 time=0.0016339875
note_on channel=0 note=64 velocity=0 time=0
note_on channel=0 note=60 velocity=0 time=0
note_on channel=0 note=60 velocity=61 time=0
control_change channel=0 control=64 value=0 time=0.009803925
control_change channel=0 control=64 value=127 time=0.1192810875
note_on channel=0 note=62 velocity=57 time=0.0669934875
note_on channel=0 note=66 velocity=56 time=0.1960785
note_on channel=0 note=66 velocity=0 time=0.1960785
note_on channel=0 note=69 velocity=60 time=0
note_on channel=0 note=69 velocity=0 time=0.00159235625
note_on channel=0 note=74 velocity=63 time=0
note_on channel=0 note=74 velocity=0 time=0.171974475
note_on channel=0 note=66 velocity=50 time=0.00162337708333
note_on channel=0 note=66 velocity=0 time=0.19480525
note_on channel=0 note=69 velocity=47 time=0
note_on channel=0 note=69 velocity=0 time=0.19480525
note_on channel=0 note=74 velocity=47 time=0
note_on channel=0 note=74 velocity=0 time=0.00167785208333
note_on channel=0 note=62 velocity=0 time=0
note_on channel=0 note=60 velocity=0 time=0
note_on channel=0 note=60 velocity=62 time=0
note_on channel=0 note=62 velocity=57 time=0.20134225
note_on channel=0 note=66 velocity=56 time=0.20134225
note_on channel=0 note=66 velocity=0 time=0.20134225
note_on channel=0 note=69 velocity=60 time=0
note_on channel=0 note=69 velocity=0 time=0.00162337708333
note_on channel=0 note=74 velocity=62 time=0
note_on channel=0 note=74 velocity=0 time=0.175324725
note_on channel=0 note=66 velocity=50 time=0.019480525
note_on channel=0 note=66 velocity=0 time=0.19480525
note_on channel=0 note=69 velocity=48 time=0
note_on channel=0 note=69 velocity=0 time=0.0017241375
note_on channel=0 note=74 velocity=48 time=0
control_change channel=0 control=91 value=127 time=0
control_change channel=0 control=64 value=0 time=0
control_change channel=0 control=91 value=127 time=0
note_on channel=0 note=74 velocity=0 time=0.00166666666667
note_on channel=0 note=62 velocity=0 time=0
note_on channel=0 note=60 velocity=0 time=0
note_on channel=0 note=59 velocity=65 time=0
control_change channel=0 control=64 value=127 time=0.186666666667
note_on channel=0 note=62 velocity=60 time=0.0133333333333
note_on channel=0 note=67 velocity=58 time=0.2
note_on channel=0 note=67 velocity=0 time=0.00162337708333
note_on channel=0 note=74 velocity=63 time=0
note_on channel=0 note=74 velocity=0 time=0.00160256458333
note_on channel=0 note=79 velocity=66 time=0
note_on channel=0 note=79 velocity=0 time=0.173076975
note_on channel=0 note=67 velocity=51 time=0.00162337708333
note_on channel=0 note=67 velocity=0 time=0.19480525
note_on channel=0 note=74 velocity=50 time=0
note_on channel=0 note=74 velocity=0 time=0.00168918958333
note_on channel=0 note=79 velocity=50 time=0
note_on channel=0 note=79 velocity=0 time=0.00166666666667
note_on channel=0 note=62 velocity=0 time=0
note_on channel=0 note=59 velocity=0 time=0
note_on channel=0 note=59 velocity=65 time=0
note_on channel=0 note=62 velocity=60 time=0.2
note_on channel=0 note=67 velocity=58 time=0.2
note_on channel=0 note=67 velocity=0 time=0.00161290416667
note_on channel=0 note=74 velocity=62 time=0
note_on channel=0 note=74 velocity=0 time=0.1935485
note_on channel=0 note=79 velocity=65 time=0
note_on channel=0 note=79 velocity=0 time=0.17419365
note_on channel=0 note=67 velocity=52 time=0.01935485
note_on channel=0 note=67 velocity=0 time=0.1935485
note_on channel=0 note=74 velocity=50 time=0
note_on channel=0 note=74 velocity=0 time=0.0017241375
note_on channel=0 note=79 velocity=50 time=0
control_change channel=0 control=91 value=127 time=0
control_change channel=0 control=91 value=127 time=0
note_on channel=0 note=79 velocity=0 time=0.00167785208333
note_on channel=0 note=62 velocity=0 time=0
note_on channel=0 note=59 velocity=0 time=0
note_on channel=0 note=59 velocity=61 time=0
control_change channel=0 control=64 value=0 time=0.020134225
control_change channel=0 control=64 value=127 time=0.0973154208333
note_on channel=0 note=60 velocity=57 time=0.0838926041667
note_on channel=0 note=64 velocity=56 time=0.20134225
note_on channel=0 note=64 velocity=0 time=0.20134225
note_on channel=0 note=67 velocity=60 time=0
note_on channel=0 note=67 velocity=0 time=0.00161290416667
note_on channel=0 note=72 velocity=63 time=0
note_on channel=0 note=72 velocity=0 time=0.17419365
note_on channel=0 note=64 velocity=50 time=0.01935485
note_on channel=0 note=64 velocity=0 time=0.1935485
note_on channel=0 note=67 velocity=47 time=0
note_on channel=0 note=67 velocity=0 time=0.00168918958333
note_on channel=0 note=72 velocity=47 time=0
note_on channel=0 note=72 velocity=0 time=0.0016339875
note_on channel=0 note=60 velocity=0 time=0
note_on channel=0 note=59 velocity=0 time=0
note_on channel=0 note=59 velocity=62 time=0
note_on channel=0 note=60 velocity=57 time=0.1960785
note_on channel=0 note=64 velocity=56 time=0.1960785
note_on channel=0 note=64 velocity=0 time=0.1960785
note_on channel=0 note=67 velocity=60 time=0
note_on channel=0 note=67 velocity=0 time=0.00161290416667
note_on channel=0 note=72 velocity=62 time=0
note_on channel=0 note=72 velocity=0 time=0.17419365
note_on channel=0 note=64 velocity=50 time=0.01935485
note_on channel=0 note=64 velocity=0 time=0.1935485
note_on channel=0 note=67 velocity=48 time=0
note_on channel=0 note=67 velocity=0 time=0.0017241375
note_on channel=0 note=72 velocity=48 time=0
control_change channel=0 control=91 value=127 time=0
control_change channel=0 control=91 value=127 time=0
note_on channel=0 note=72 velocity=0 time=0.0016447375
note_on channel=0 note=60 velocity=0 time=0
note_on channel=0 note=59 velocity=0 time=0
note_on channel=0 note=57 velocity=61 time=0
control_change channel=0 control=64 value=0 time=0.0148026375
control_change channel=0 control=64 value=127 time=0.1694079625
note_on channel=0 note=60 velocity=57 time=0.0131579
note_on channel=0 note=64 velocity=56 time=0.1973685
note_on channel=0 note=64 velocity=0 time=0.1973685
note_on channel=0 note=67 velocity=60 time=0
note_on channel=0 note=67 velocity=0 time=0.1973685
note_on channel=0 note=72 velocity=63 time=0
note_on channel=0 note=72 velocity=0 time=0.17763165
note_on channel=0 note=64 velocity=50 time=0.00168918958333
note_on channel=0 note=64 velocity=0 time=0.20270275
note_on channel=0 note=67 velocity=47 time=0
note_on channel=0 note=67 velocity=0 time=0.20270275
note_on channel=0 note=72 velocity=47 time=0
note_on channel=0 note=72 velocity=0 time=0.00165562916667
note_on channel=0 note=60 velocity=0 time=0
note_on channel=0 note=57 velocity=0 time=0
note_on channel=0 note=57 velocity=62 time=0
note_on channel=0 note=60 velocity=57 time=0.1986755
note_on channel=0 note=64 velocity=56 time=0.1986755
note_on channel=0 note=64 velocity=0 time=0.1986755
note_on channel=0 note=67 velocity=60 time=0
note_on channel=0 note=67 velocity=0 time=0.1986755
note_on channel=0 note=72 velocity=62 time=0
note_on channel=0 note=72 velocity=0 time=0.17880795
note_on channel=0 note=64 velocity=50 time=0.00170068125
note_on channel=0 note=64 velocity=0 time=0.20408175
note_on channel=0 note=67 velocity=48 time=0
note_on channel=0 note=67 velocity=0 time=0.00182481666667
note_on channel=0 note=72 velocity=48 time=0
control_change channel=0 control=91 value=127 time=0
control_change channel=0 control=91 value=127 time=0
note_on channel=0 note=72 velocity=0 time=0.00170068125
note_on channel=0 note=60 velocity=0 time=0
note_on channel=0 note=57 velocity=0 time=0
note_on channel=0 note=50 velocity=61 time=0
control_change channel=0 control=64 value=0 time=0.01530613125
control_change channel=0 control=64 value=127 time=0.1190476875
note_on channel=0 note=57 velocity=57 time=0.06972793125
note_on channel=0 note=62 velocity=56 time=0.20408175
note_on channel=0 note=62 velocity=0 time=0.00166666666667
note_on channel=0 note=66 velocity=60 time=0
note_on channel=0 note=66 velocity=0 time=0.2
note_on channel=0 note=72 velocity=63 time=0
note_on channel=0 note=72 velocity=0 time=0.18
note_on channel=0 note=62 velocity=50 time=0.02
note_on channel=0 note=62 velocity=0 time=0.2
note_on channel=0 note=66 velocity=47 time=0
note_on channel=0 note=66 velocity=0 time=0.2
note_on channel=0 note=72 velocity=47 time=0
note_on channel=0 note=72 velocity=0 time=0.00170068125
note_on channel=0 note=57 velocity=0 time=0
note_on channel=0 note=50 velocity=0 time=0
note_on channel=0 note=50 velocity=62 time=0
note_on channel=0 note=57 velocity=57 time=0.20408175
note_on channel=0 note=62 velocity=56 time=0.20408175
note_on channel=0 note=62 velocity=0 time=0.00165562916667
note_on channel=0 note=66 velocity=60 time=0
note_on channel=0 note=66 velocity=0 time=0.1986755
note_on channel=0 note=72 velocity=62 time=0
note_on channel=0 note=72 velocity=0 time=0.17880795
note_on channel=0 note=62 velocity=50 time=0.01986755
note_on channel=0 note=62 velocity=0 time=0.1986755
note_on channel=0 note=66 velocity=48 time=0
note_on channel=0 note=66 velocity=0 time=0.0017241375
note_on channel=0 note=72 velocity=48 time=0
control_change channel=0 control=91 value=127 time=0
control_change channel=0 control=91 value=127 time=0
note_on channel=0 note=72 velocity=0 time=0.00165562916667
note_on channel=0 note=57 velocity=0 time=0
note_on channel=0 note=50 velocity=0 time=0
note_on channel=0 note=55 velocity=57 time=0
control_change channel=0 control=64 value=0 time=0.0132450333333
control_change channel=0 control=64 value=127 time=0.149006625
note_on channel=0 note=59 velocity=55 time=0.0364238416667
note_on channel=0 note=62 velocity=53 time=0.1986755
note_on channel=0 note=62 velocity=0 time=0.1986755
note_on channel=0 note=67 velocity=56 time=0
note_on channel=0 note=67 velocity=0 time=0.0016339875
note_on channel=0 note=71 velocity=60 time=0
note_on channel=0 note=71 velocity=0 time=0.17647065
note_on channel=0 note=62 velocity=46 time=0.01960785
note_on channel=0 note=62 velocity=0 time=0.1960785
note_on channel=0 note=67 velocity=45 time=0
note_on channel=0 note=67 velocity=0 time=0.1960785
note_on channel=0 note=71 velocity=45 time=0
note_on channel=0 note=71 velocity=0 time=0.00165562916667
note_on channel=0 note=59 velocity=0 time=0
note_on channel=0 note=55 velocity=0 time=0
note_on channel=0 note=55 velocity=58 time=0
note_on channel=0 note=59 velocity=55 time=0.1986755
note_on channel=0 note=62 velocity=53 time=0.1986755
note_on channel=0 note=62 velocity=0 time=0.1986755
note_on channel=0 note=67 velocity=56 time=0
note_on channel=0 note=67 velocity=0 time=0.00162337708333
note_on channel=0 note=71 velocity=58 time=0
note_on channel=0 note=71 velocity=0 time=0.175324725
note_on channel=0 note=62 velocity=47 time=0.019480525
note_on channel=0 note=62 velocity=0 time=0.19480525
note_on channel=0 note=67 velocity=45 time=0
note_on channel=0 note=67 velocity=0 time=0.19480525
note_on channel=0 note=71 velocity=45 time=0
control_change channel=0 control=91 value=127 time=0
control_change channel=0 control=91 value=127 time=0
note_on channel=0 note=71 velocity=0 time=0.00165562916667
note_on channel=0 note=59 velocity=0 time=0
note_on channel=0 note=55 velocity=0 time=0
note_on channel=0 note=55 velocity=57 time=0
control_change channel=0 control=64 value=0 time=0.009933775
control_change channel=0 control=64 value=127 time=0.13907285
note_on channel=0 note=58 velocity=55 time=0.049668875
note_on channel=0 note=64 velocity=53 time=0.1986755
note_on channel=0 note=64 velocity=0 time=0.1986755
note_on channel=0 note=67 velocity=56 time=0
note_on channel=0 note=67 velocity=0 time=0.00162337708333
note_on channel=0 note=73 velocity=60 time=0
note_on channel=0 note=73 velocity=0 time=0.175324725
note_on channel=0 note=64 velocity=46 time=0.019480525
note_on channel=0 note=64 velocity=0 time=0.19480525
note_on channel=0 note=67 velocity=45 time=0
note_on channel=0 note=67 velocity=0 time=0.0017241375
note_on channel=0 note=73 velocity=45 time=0
note_on channel=0 note=73 velocity=0 time=0.00165562916667
note_on channel=0 note=58 velocity=0 time=0
note_on channel=0 note=55 velocity=0 time=0
note_on channel=0 note=55 velocity=58 time=0
note_on channel=0 note=58 velocity=55 time=0.1986755
note_on channel=0 note=64 velocity=53 time=0.1986755
note_on channel=0 note=64 velocity=0 time=0.1986755
note_on channel=0 note=67 velocity=56 time=0
note_on channel=0 note=67 velocity=0 time=0.1986755
note_on channel=0 note=73 velocity=58 time=0
note_on channel=0 note=73 velocity=0 time=0.1454248875
note_on channel=0 note=64 velocity=47 time=0.01960785
note_on channel=0 note=64 velocity=0 time=0.1960785
note_on channel=0 note=67 velocity=45 time=0
note_on channel=0 note=67 velocity=0 time=0.00171232916667
note_on channel=0 note=73 velocity=45 time=0
control_change channel=0 control=91 value=127 time=0
control_change channel=0 control=91 value=127 time=0
note_on channel=0 note=73 velocity=0 time=0.00173611041667
note_on channel=0 note=58 velocity=0 time=0
note_on channel=0 note=55 velocity=0 time=0
note_on channel=0 note=53 velocity=61 time=0
control_change channel=0 control=64 value=0 time=0.020833325
note_on channel=0 note=57 velocity=57 time=0.00165562916667
control_change channel=0 control=64 value=127 time=0.0331125833333
note_on channel=0 note=62 velocity=56 time=0.165562916667
note_on channel=0 note=62 velocity=0 time=0.1986755
note_on channel=0 note=69 velocity=60 time=0
note_on channel=0 note=69 velocity=0 time=0.0016339875
note_on channel=0 note=74 velocity=63 time=0
note_on channel=0 note=74 velocity=0 time=0.17647065
note_on channel=0 note=62 velocity=50 time=0.01960785
note_on channel=0 note=62 velocity=0 time=0.1960785
note_on channel=0 note=69 velocity=47 time=0
note_on channel=0 note=69 velocity=0 time=0.1960785
note_on channel=0 note=74 velocity=47 time=0
note_on channel=0 note=74 velocity=0 time=0.00165562916667
note_on channel=0 note=57 velocity=0 time=0
note_on channel=0 note=53 velocity=0 time=0
note_on channel=0 note=53 velocity=62 time=0
note_on channel=0 note=57 velocity=57 time=0.1986755
note_on channel=0 note=62 velocity=56 time=0.1986755
note_on channel=0 note=62 velocity=0 time=0.1986755
note_on channel=0 note=69 velocity=60 time=0
note_on channel=0 note=69 velocity=0 time=0.0016339875
note_on channel=0 note=74 velocity=62 time=0
note_on channel=0 note=74 velocity=0 time=0.17647065
note_on channel=0 note=62 velocity=50 time=0.01960785
note_on channel=0 note=62 velocity=0 time=0.1960785
note_on channel=0 note=69 velocity=48 time=0
note_on channel=0 note=69 velocity=0 time=0.00173611041667
note_on channel=0 note=74 velocity=48 time=0
control_change channel=0 control=91 value=127 time=0
control_change channel=0 control=91 value=127 time=0
note_on channel=0 note=74 velocity=0 time=0.00166666666667
note_on channel=0 note=57 velocity=0 time=0
note_on channel=0 note=53 velocity=0 time=0
note_on channel=0 note=53 velocity=57 time=0
control_change channel=0 control=64 value=0 time=0.0133333333333
note_on channel=0 note=56 velocity=55 time=0.186666666667
control_change channel=0 control=64 value=127 time=0.0333333333333
note_on channel=0 note=62 velocity=53 time=0.166666666667
note_on channel=0 note=62 velocity=0 time=0.2
note_on channel=0 note=65 velocity=56 time=0
note_on channel=0 note=65 velocity=0 time=0.0016339875
note_on channel=0 note=71 velocity=60 time=0
note_on channel=0 note=71 velocity=0 time=0.17647065
note_on channel=0 note=62 velocity=46 time=0.01960785
note_on channel=0 note=62 velocity=0 time=0.1960785
note_on channel=0 note=65 velocity=45 time=0
note_on channel=0 note=65 velocity=0 time=0.1960785
note_on channel=0 note=71 velocity=45 time=0
note_on channel=0 note=71 velocity=0 time=0.00166666666667
note_on channel=0 note=56 velocity=0 time=0
note_on channel=0 note=53 velocity=0 time=0
note_on channel=0 note=53 velocity=58 time=0
note_on channel=0 note=56 velocity=55 time=0.2
note_on channel=0 note=62 velocity=53 time=0.2
note_on channel=0 note=62 velocity=0 time=0.2
note_on channel=0 note=65 velocity=56 time=0
note_on channel=0 note=65 velocity=0 time=0.0016339875
note_on channel=0 note=71 velocity=58 time=0
note_on channel=0 note=71 velocity=0 time=0.17647065
note_on channel=0 note=62 velocity=47 time=0.01960785
note_on channel=0 note=62 velocity=0 time=0.1960785
note_on channel=0 note=65 velocity=45 time=0
note_on channel=0 note=65 velocity=0 time=0.00171232916667
note_on channel=0 note=71 velocity=45 time=0
control_change channel=0 control=91 value=127 time=0
control_change channel=0 control=91 value=127 time=0
note_on channel=0 note=71 velocity=0 time=0.00166666666667
note_on channel=0 note=56 velocity=0 time=0
note_on channel=0 note=53 velocity=0 time=0
note_on channel=0 note=52 velocity=57 time=0
control_change channel=0 control=64 value=0 time=0.0216666666667
note_on channel=0 note=55 velocity=55 time=0.178333333333
control_change channel=0 control=64 value=127 time=0.045
note_on channel=0 note=60 velocity=53 time=0.155
note_on channel=0 note=60 velocity=0 time=0.00165562916667
note_on channel=0 note=67 velocity=56 time=0
note_on channel=0 note=67 velocity=0 time=0.00161290416667
note_on channel=0 note=72 velocity=60 time=0
note_on channel=0 note=72 velocity=0 time=0.17419365
note_on channel=0 note=60 velocity=46 time=0.01935485
note_on channel=0 note=60 velocity=0 time=0.1935485
note_on channel=0 note=67 velocity=45 time=0
note_on channel=0 note=67 velocity=0 time=0.1935485
note_on channel=0 note=72 velocity=45 time=0
note_on channel=0 note=72 velocity=0 time=0.00165562916667
note_on channel=0 note=55 velocity=0 time=0
note_on channel=0 note=52 velocity=0 time=0
note_on channel=0 note=52 velocity=58 time=0
note_on channel=0 note=55 velocity=55 time=0.1986755
note_on channel=0 note=60 velocity=53 time=0.1986755
note_on channel=0 note=60 velocity=0 time=0.1986755
note_on channel=0 note=67 velocity=56 time=0
note_on channel=0 note=67 velocity=0 time=0.00162337708333
note_on channel=0 note=72 velocity=58 time=0
note_on channel=0 note=72 velocity=0 time=0.175324725
note_on channel=0 note=60 velocity=47 time=0.019480525
note_on channel=0 note=60 velocity=0 time=0.19480525
note_on channel=0 note=67 velocity=45 time=0
note_on channel=0 note=67 velocity=0 time=0.0017605625
note_on channel=0 note=72 velocity=45 time=0
control_change channel=0 control=91 value=127 time=0
control_change channel=0 control=91 value=127 time=0
note_on channel=0 note=72 velocity=0 time=0.00167785208333
note_on channel=0 note=55 velocity=0 time=0
note_on channel=0 note=52 velocity=0 time=0
note_on channel=0 note=52 velocity=55 time=0
control_change channel=0 control=64 value=0 time=0.01510066875
note_on channel=0 note=53 velocity=51 time=0.18624158125
control_change channel=0 control=64 value=127 time=0.0922818645833
note_on channel=0 note=57 velocity=50 time=0.109060385417
note_on channel=0 note=57 velocity=0 time=0.20134225
note_on channel=0 note=60 velocity=53 time=0
note_on channel=0 note=60 velocity=0 time=0.0016339875
note_on channel=0 note=65 velocity=56 time=0
note_on channel=0 note=65 velocity=0 time=0.17647065
note_on channel=0 note=57 velocity=45 time=0.01960785
note_on channel=0 note=57 velocity=0 time=0.1960785
note_on channel=0 note=60 velocity=42 time=0
note_on channel=0 note=60 velocity=0 time=0.1960785
note_on channel=0 note=65 velocity=42 time=0
note_on channel=0 note=65 velocity=0 time=0.00167785208333
note_on channel=0 note=53 velocity=0 time=0
note_on channel=0 note=52 velocity=0 time=0
note_on channel=0 note=52 velocity=55 time=0
note_on channel=0 note=53 velocity=51 time=0.20134225
note_on channel=0 note=57 velocity=50 time=0.20134225
note_on channel=0 note=57 velocity=0 time=0.20134225
note_on channel=0 note=60 velocity=53 time=0
note_on channel=0 note=60 velocity=0 time=0.0016447375
note_on channel=0 note=65 velocity=55 time=0
note_on channel=0 note=65 velocity=0 time=0.17763165
note_on channel=0 note=57 velocity=45 time=0.01973685
note_on channel=0 note=57 velocity=0 time=0.1973685
note_on channel=0 note=60 velocity=43 time=0
note_on channel=0 note=60 velocity=0 time=0.00177305
note_on channel=0 note=65 velocity=43 time=0
control_change channel=0 control=91 value=127 time=0
control_change channel=0 control=91 value=127 time=0
note_on channel=0 note=65 velocity=0 time=0.00167785208333
note_on channel=0 note=53 velocity=0 time=0
note_on channel=0 note=52 velocity=0 time=0
note_on channel=0 note=50 velocity=55 time=0
control_change channel=0 control=64 value=0 time=0.0100671125
control_change channel=0 control=64 value=127 time=0.189597285417
note_on channel=0 note=53 velocity=51 time=0.00167785208333
note_on channel=0 note=57 velocity=50 time=0.20134225
note_on channel=0 note=57 velocity=0 time=0.20134225
note_on channel=0 note=60 velocity=53 time=0
note_on channel=0 note=60 velocity=0 time=0.0016447375
note_on channel=0 note=65 velocity=56 time=0
note_on channel=0 note=65 velocity=0 time=0.17763165
note_on channel=0 note=57 velocity=45 time=0.01973685
note_on channel=0 note=57 velocity=0 time=0.1973685
note_on channel=0 note=60 velocity=42 time=0
note_on channel=0 note=60 velocity=0 time=0.0017605625
note_on channel=0 note=65 velocity=42 time=0
note_on channel=0 note=65 velocity=0 time=0.00167785208333
note_on channel=0 note=53 velocity=0 time=0
note_on channel=0 note=50 velocity=0 time=0
note_on channel=0 note=50 velocity=55 time=0
note_on channel=0 note=53 velocity=51 time=0.20134225
note_on channel=0 note=57 velocity=50 time=0.20134225
note_on channel=0 note=57 velocity=0 time=0.20134225
note_on channel=0 note=60 velocity=53 time=0
note_on channel=0 note=60 velocity=0 time=0.00165562916667
note_on channel=0 note=65 velocity=55 time=0
note_on channel=0 note=65 velocity=0 time=0.17880795
note_on channel=0 note=57 velocity=45 time=0.01986755
note_on channel=0 note=57 velocity=0 time=0.1986755
note_on channel=0 note=60 velocity=43 time=0
note_on channel=0 note=60 velocity=0 time=0.00177305
note_on channel=0 note=65 velocity=43 time=0
control_change channel=0 control=91 value=127 time=0
control_change channel=0 control=91 value=127 time=0
note_on channel=0 note=65 velocity=0 time=0.00167785208333
note_on channel=0 note=53 velocity=0 time=0
note_on channel=0 note=50 velocity=0 time=0
note_on channel=0 note=43 velocity=55 time=0
control_change channel=0 control=64 value=0 time=0.0167785208333
control_change channel=0 control=64 value=127 time=0.147650983333
note_on channel=0 note=50 velocity=51 time=0.0369127458333
note_on channel=0 note=55 velocity=50 time=0.20134225
note_on channel=0 note=55 velocity=0 time=0.20134225
note_on channel=0 note=59 velocity=53 time=0
note_on channel=0 note=59 velocity=0 time=0.20134225
note_on channel=0 note=65 velocity=56 time=0
note_on channel=0 note=65 velocity=0 time=0.181208025
note_on channel=0 note=55 velocity=45 time=0.020134225
note_on channel=0 note=55 velocity=0 time=0.20134225
note_on channel=0 note=59 velocity=42 time=0
note_on channel=0 note=59 velocity=0 time=0.20134225
note_on channel=0 note=65 velocity=42 time=0
note_on channel=0 note=65 velocity=0 time=0.00167785208333
note_on channel=0 note=50 velocity=0 time=0
note_on channel=0 note=43 velocity=0 time=0
note_on channel=0 note=43 velocity=55 time=0
note_on channel=0 note=50 velocity=51 time=0.20134225
note_on channel=0 note=55 velocity=50 time=0.20134225
note_on channel=0 note=55 velocity=0 time=0.20134225
note_on channel=0 note=59 velocity=53 time=0
note_on channel=0 note=59 velocity=0 time=0.20134225
note_on channel=0 note=65 velocity=55 time=0
note_on channel=0 note=65 velocity=0 time=0.181208025
note_on channel=0 note=55 velocity=45 time=0.020134225
note_on channel=0 note=55 velocity=0 time=0.20134225
note_on channel=0 note=59 velocity=43 time=0
note_on channel=0 note=59 velocity=0 time=0.20134225
note_on channel=0 note=65 velocity=43 time=0
control_change channel=0 control=91 value=127 time=0
control_change channel=0 control=91 value=127 time=0
note_on channel=0 note=65 velocity=0 time=0.0017241375
note_on channel=0 note=50 velocity=0 time=0
note_on channel=0 note=43 velocity=0 time=0
note_on channel=0 note=48 velocity=55 time=0
control_change channel=0 control=64 value=0 time=0.0155172375
control_change channel=0 control=64 value=127 time=0.189655125
note_on channel=0 note=52 velocity=51 time=0.0017241375
note_on channel=0 note=55 velocity=50 time=0.2068965
note_on channel=0 note=55 velocity=0 time=0.00167785208333
note_on channel=0 note=60 velocity=53 time=0
note_on channel=0 note=60 velocity=0 time=0.20134225
note_on channel=0 note=64 velocity=56 time=0
note_on channel=0 note=64 velocity=0 time=0.181208025
note_on channel=0 note=55 velocity=45 time=0.020134225
note_on channel=0 note=55 velocity=0 time=0.20134225
note_on channel=0 note=60 velocity=42 time=0
note_on channel=0 note=60 velocity=0 time=0.20134225
note_on channel=0 note=64 velocity=42 time=0
note_on channel=0 note=64 velocity=0 time=0.00171232916667
note_on channel=0 note=52 velocity=0 time=0
note_on channel=0 note=48 velocity=0 time=0
note_on channel=0 note=48 velocity=55 time=0
note_on channel=0 note=52 velocity=51 time=0.2054795
note_on channel=0 note=55 velocity=50 time=0.2054795
note_on channel=0 note=55 velocity=0 time=0.00166666666667
note_on channel=0 note=60 velocity=53 time=0
note_on channel=0 note=60 velocity=0 time=0.2
note_on channel=0 note=64 velocity=55 time=0
note_on channel=0 note=64 velocity=0 time=0.18
note_on channel=0 note=55 velocity=45 time=0.02
note_on channel=0 note=55 velocity=0 time=0.2
note_on channel=0 note=60 velocity=43 time=0
note_on channel=0 note=60 velocity=0 time=0.2
note_on channel=0 note=64 velocity=43 time=0
control_change channel=0 control=91 value=127 time=0
control_change channel=0 control=91 value=127 time=0
note_on channel=0 note=64 velocity=0 time=0.00166666666667
note_on channel=0 note=52 velocity=0 time=0
note_on channel=0 note=48 velocity=0 time=0
note_on channel=0 note=48 velocity=51 time=0
control_change channel=0 control=64 value=0 time=0.015
control_change channel=0 control=64 value=127 time=0.135
note_on channel=0 note=55 velocity=48 time=0.05
note_on channel=0 note=58 velocity=47 time=0.2
note_on channel=0 note=58 velocity=0 time=0.2
note_on channel=0 note=60 velocity=50 time=0
note_on channel=0 note=60 velocity=0 time=0.00162337708333
note_on channel=0 note=64 velocity=53 time=0
note_on channel=0 note=64 velocity=0 time=0.175324725
note_on channel=0 note=58 velocity=41 time=0.00165562916667
note_on channel=0 note=58 velocity=0 time=0.1986755
note_on channel=0 note=60 velocity=40 time=0
note_on channel=0 note=60 velocity=0 time=0.1986755
note_on channel=0 note=64 velocity=40 time=0
note_on channel=0 note=64 velocity=0 time=0.00166666666667
note_on channel=0 note=55 velocity=0 time=0
note_on channel=0 note=48 velocity=0 time=0
note_on channel=0 note=48 velocity=52 time=0
note_on channel=0 note=55 velocity=48 time=0.2
note_on channel=0 note=58 velocity=47 time=0.2
note_on channel=0 note=58 velocity=0 time=0.2
note_on channel=0 note=60 velocity=50 time=0
note_on channel=0 note=60 velocity=0 time=0.00162337708333
note_on channel=0 note=64 velocity=52 time=0
note_on channel=0 note=64 velocity=0 time=0.175324725
note_on channel=0 note=58 velocity=42 time=0.00166666666667
note_on channel=0 note=58 velocity=0 time=0.2
note_on channel=0 note=60 velocity=40 time=0
note_on channel=0 note=60 velocity=0 time=0.00182481666667
note_on channel=0 note=64 velocity=40 time=0
control_change channel=0 control=91 value=127 time=0
control_change channel=0 control=91 value=127 time=0
note_on channel=0 note=64 velocity=0 time=0.00166666666667
note_on channel=0 note=55 velocity=0 time=0
note_on channel=0 note=48 velocity=0 time=0
note_on channel=0 note=41 velocity=51 time=0
control_change channel=0 control=64 value=0 time=0.0133333333333
note_on channel=0 note=53 velocity=48 time=0.186666666667
control_change channel=0 control=64 value=127 time=0.01
note_on channel=0 note=57 velocity=47 time=0.19
note_on channel=0 note=57 velocity=0 time=0.2
note_on channel=0 note=60 velocity=50 time=0
note_on channel=0 note=60 velocity=0 time=0.0016339875
note_on channel=0 note=64 velocity=53 time=0
note_on channel=0 note=64 velocity=0 time=0.17647065
note_on channel=0 note=57 velocity=41 time=0.01960785
note_on channel=0 note=57 velocity=0 time=0.1960785
note_on channel=0 note=60 velocity=40 time=0
note_on channel=0 note=60 velocity=0 time=0.1960785
note_on channel=0 note=64 velocity=40 time=0
note_on channel=0 note=64 velocity=0 time=0.00166666666667
note_on channel=0 note=53 velocity=0 time=0
note_on channel=0 note=41 velocity=0 time=0
note_on channel=0 note=41 velocity=52 time=0
note_on channel=0 note=53 velocity=48 time=0.2
note_on channel=0 note=57 velocity=47 time=0.2
note_on channel=0 note=57 velocity=0 time=0.2
note_on channel=0 note=60 velocity=50 time=0
note_on channel=0 note=60 velocity=0 time=0.0016447375
note_on channel=0 note=64 velocity=52 time=0
note_on channel=0 note=64 velocity=0 time=0.17763165
note_on channel=0 note=57 velocity=42 time=0.01973685
note_on channel=0 note=57 velocity=0 time=0.1973685
note_on channel=0 note=60 velocity=40 time=0
note_on channel=0 note=60 velocity=0 time=0.00179856041667
note_on channel=0 note=64 velocity=40 time=0
control_change channel=0 control=91 value=127 time=0
control_change channel=0 control=91 value=127 time=0
note_on channel=0 note=64 velocity=0 time=0.00170068125
note_on channel=0 note=53 velocity=0 time=0
note_on channel=0 note=41 velocity=0 time=0
note_on channel=0 note=42 velocity=55 time=0
control_change channel=0 control=64 value=0 time=0.01870749375
control_change channel=0 control=64 value=127 time=0.13435381875
note_on channel=0 note=48 velocity=51 time=0.0510204375
note_on channel=0 note=57 velocity=50 time=0.20408175
note_on channel=0 note=57 velocity=0 time=0.20408175
note_on channel=0 note=60 velocity=53 time=0
note_on channel=0 note=60 velocity=0 time=0.00167785208333
note_on channel=0 note=63 velocity=56 time=0
note_on channel=0 note=63 velocity=0 time=0.181208025
note_on channel=0 note=57 velocity=45 time=0.020134225
note_on channel=0 note=57 velocity=0 time=0.20134225
note_on channel=0 note=60 velocity=42 time=0
note_on channel=0 note=60 velocity=0 time=0.20134225
note_on channel=0 note=63 velocity=42 time=0
note_on channel=0 note=63 velocity=0 time=0.00170068125
note_on channel=0 note=48 velocity=0 time=0
note_on channel=0 note=42 velocity=0 time=0
note_on channel=0 note=42 velocity=55 time=0
note_on channel=0 note=48 velocity=51 time=0.20408175
note_on channel=0 note=57 velocity=50 time=0.20408175
note_on channel=0 note=57 velocity=0 time=0.20408175
note_on channel=0 note=60 velocity=53 time=0
note_on channel=0 note=60 velocity=0 time=0.00166666666667
note_on channel=0 note=63 velocity=55 time=0
note_on channel=0 note=63 velocity=0 time=0.18
note_on channel=0 note=57 velocity=45 time=0.02
note_on channel=0 note=57 velocity=0 time=0.2
note_on channel=0 note=60 velocity=43 time=0
note_on channel=0 note=60 velocity=0 time=0.001953125
note_on channel=0 note=63 velocity=43 time=0
control_change channel=0 control=91 value=127 time=0
control_change channel=0 control=91 value=127 time=0
note_on channel=0 note=63 velocity=0 time=0.0016447375
note_on channel=0 note=48 velocity=0 time=0
note_on channel=0 note=42 velocity=0 time=0
note_on channel=0 note=44 velocity=51 time=0
control_change channel=0 control=64 value=0 time=0.009868425
control_change channel=0 control=64 value=127 time=0.1858553375
note_on channel=0 note=53 velocity=48 time=0.0016447375
note_on channel=0 note=59 velocity=47 time=0.1973685
note_on channel=0 note=59 velocity=0 time=0.1973685
note_on channel=0 note=60 velocity=50 time=0
note_on channel=0 note=60 velocity=0 time=0.1973685
note_on channel=0 note=62 velocity=53 time=0
note_on channel=0 note=62 velocity=0 time=0.17763165
note_on channel=0 note=59 velocity=41 time=0.00160256458333
note_on channel=0 note=59 velocity=0 time=0.19230775
note_on channel=0 note=60 velocity=40 time=0
note_on channel=0 note=60 velocity=0 time=0.00171232916667
note_on channel=0 note=62 velocity=40 time=0
note_on channel=0 note=62 velocity=0 time=0.0016447375
note_on channel=0 note=53 velocity=0 time=0
note_on channel=0 note=44 velocity=0 time=0
note_on channel=0 note=44 velocity=52 time=0
note_on channel=0 note=53 velocity=48 time=0.1973685
note_on channel=0 note=59 velocity=47 time=0.1973685
note_on channel=0 note=59 velocity=0 time=0.1973685
note_on channel=0 note=60 velocity=50 time=0
note_on channel=0 note=60 velocity=0 time=0.1973685
note_on channel=0 note=62 velocity=52 time=0
note_on channel=0 note=62 velocity=0 time=0.17763165
note_on channel=0 note=59 velocity=42 time=0.00161290416667
note_on channel=0 note=59 velocity=0 time=0.1935485
note_on channel=0 note=60 velocity=40 time=0
note_on channel=0 note=60 velocity=0 time=0.00170068125
note_on channel=0 note=62 velocity=40 time=0
control_change channel=0 control=91 value=127 time=0
control_change channel=0 control=91 value=127 time=0
note_on channel=0 note=62 velocity=0 time=0.00170068125
note_on channel=0 note=53 velocity=0 time=0
note_on channel=0 note=44 velocity=0 time=0
note_on channel=0 note=43 velocity=55 time=0
control_change channel=0 control=64 value=0 time=0.0102040875
note_on channel=0 note=53 velocity=51 time=0.1938776625
control_change channel=0 control=64 value=127 time=0.02210885625
note_on channel=0 note=55 velocity=50 time=0.18197289375
note_on channel=0 note=55 velocity=0 time=0.0016447375
note_on channel=0 note=59 velocity=53 time=0
note_on channel=0 note=59 velocity=0 time=0.1973685
note_on channel=0 note=62 velocity=56 time=0
note_on channel=0 note=62 velocity=0 time=0.17763165
note_on channel=0 note=55 velocity=45 time=0.01973685
note_on channel=0 note=55 velocity=0 time=0.1973685
note_on channel=0 note=59 velocity=42 time=0
note_on channel=0 note=59 velocity=0 time=0.1973685
note_on channel=0 note=62 velocity=42 time=0
note_on channel=0 note=62 velocity=0 time=0.00168918958333
note_on channel=0 note=53 velocity=0 time=0
note_on channel=0 note=43 velocity=0 time=0
note_on channel=0 note=43 velocity=55 time=0
note_on channel=0 note=53 velocity=51 time=0.20270275
note_on channel=0 note=55 velocity=50 time=0.20270275
note_on channel=0 note=55 velocity=0 time=0.0016447375
note_on channel=0 note=59 velocity=53 time=0
note_on channel=0 note=59 velocity=0 time=0.1973685
note_on channel=0 note=62 velocity=55 time=0
note_on channel=0 note=62 velocity=0 time=0.17763165
note_on channel=0 note=55 velocity=45 time=0.01973685
note_on channel=0 note=55 velocity=0 time=0.1973685
note_on channel=0 note=59 velocity=43 time=0
note_on channel=0 note=59 velocity=0 time=0.00173611041667
note_on channel=0 note=62 velocity=43 time=0
control_change channel=0 control=91 value=127 time=0
control_change channel=0 control=91 value=127 time=0
note_on channel=0 note=62 velocity=0 time=0.00167785208333
note_on channel=0 note=53 velocity=0 time=0
note_on channel=0 note=43 velocity=0 time=0
note_on channel=0 note=43 velocity=55 time=0
control_change channel=0 control=64 value=0 time=0.0167785208333
note_on channel=0 note=52 velocity=51 time=0.184563729167
control_change channel=0 control=64 value=127 time=0.0335570416667
note_on channel=0 note=55 velocity=50 time=0.167785208333
note_on channel=0 note=55 velocity=0 time=0.20134225
note_on channel=0 note=60 velocity=53 time=0
note_on channel=0 note=60 velocity=0 time=0.0016447375
note_on channel=0 note=64 velocity=56 time=0
note_on channel=0 note=64 velocity=0 time=0.17763165
note_on channel=0 note=55 velocity=45 time=0.01973685
note_on channel=0 note=55 velocity=0 time=0.1973685
note_on channel=0 note=60 velocity=42 time=0
note_on channel=0 note=60 velocity=0 time=0.1973685
note_on channel=0 note=64 velocity=42 time=0
note_on channel=0 note=64 velocity=0 time=0.00167785208333
note_on channel=0 note=52 velocity=0 time=0
note_on channel=0 note=43 velocity=0 time=0
note_on channel=0 note=43 velocity=55 time=0
note_on channel=0 note=52 velocity=51 time=0.20134225
note_on channel=0 note=55 velocity=50 time=0.20134225
note_on channel=0 note=55 velocity=0 time=0.20134225
note_on channel=0 note=60 velocity=53 time=0
note_on channel=0 note=60 velocity=0 time=0.0016339875
note_on channel=0 note=64 velocity=55 time=0
note_on channel=0 note=64 velocity=0 time=0.17647065
note_on channel=0 note=55 velocity=45 time=0.01960785
note_on channel=0 note=55 velocity=0 time=0.1960785
note_on channel=0 note=60 velocity=43 time=0
note_on channel=0 note=60 velocity=0 time=0.1960785
note_on channel=0 note=64 velocity=43 time=0
control_change channel=0 control=91 value=127 time=0
control_change channel=0 control=91 value=127 time=0
note_on channel=0 note=64 velocity=0 time=0.0016447375
note_on channel=0 note=52 velocity=0 time=0
note_on channel=0 note=43 velocity=0 time=0
note_on channel=0 note=43 velocity=57 time=0
control_change channel=0 control=64 value=0 time=0.0213815875
note_on channel=0 note=50 velocity=55 time=0.1759869125
control_change channel=0 control=64 value=127 time=0.0674342375
note_on channel=0 note=55 velocity=53 time=0.1299342625
note_on channel=0 note=55 velocity=0 time=0.1973685
note_on channel=0 note=60 velocity=56 time=0
note_on channel=0 note=60 velocity=0 time=0.00160256458333
note_on channel=0 note=65 velocity=60 time=0
note_on channel=0 note=65 velocity=0 time=0.173076975
note_on channel=0 note=55 velocity=46 time=0.019230775
note_on channel=0 note=55 velocity=0 time=0.19230775
note_on channel=0 note=60 velocity=45 time=0
note_on channel=0 note=60 velocity=0 time=0.00170068125
note_on channel=0 note=65 velocity=45 time=0
note_on channel=0 note=65 velocity=0 time=0.00168918958333
note_on channel=0 note=50 velocity=0 time=0
note_on channel=0 note=43 velocity=0 time=0
note_on channel=0 note=43 velocity=58 time=0
note_on channel=0 note=50 velocity=55 time=0.00165562916667
note_on channel=0 note=55 velocity=53 time=0.1986755
note_on channel=0 note=55 velocity=0 time=0.1986755
note_on channel=0 note=60 velocity=56 time=0
note_on channel=0 note=60 velocity=0 time=0.00160256458333
note_on channel=0 note=65 velocity=58 time=0
note_on channel=0 note=65 velocity=0 time=0.173076975
note_on channel=0 note=55 velocity=47 time=0.019230775
note_on channel=0 note=55 velocity=0 time=0.00162337708333
note_on channel=0 note=60 velocity=45 time=0
note_on channel=0 note=60 velocity=0 time=0.00170068125
note_on channel=0 note=65 velocity=45 time=0
control_change channel=0 control=91 value=127 time=0
control_change channel=0 control=91 value=127 time=0
note_on channel=0 note=65 velocity=0 time=0.00165562916667
note_on channel=0 note=50 velocity=0 time=0
note_on channel=0 note=43 velocity=0 time=0
note_on channel=0 note=43 velocity=57 time=0
control_change channel=0 control=64 value=0 time=0.009933775
control_change channel=0 control=64 value=127 time=0.117549670833
note_on channel=0 note=50 velocity=55 time=0.0711920541667
note_on channel=0 note=55 velocity=53 time=0.1986755
note_on channel=0 note=55 velocity=0 time=0.1986755
note_on channel=0 note=59 velocity=56 time=0
note_on channel=0 note=59 velocity=0 time=0.00162337708333
note_on channel=0 note=65 velocity=60 time=0
note_on channel=0 note=65 velocity=0 time=0.175324725
note_on channel=0 note=55 velocity=46 time=0.019480525
note_on channel=0 note=55 velocity=0 time=0.19480525
note_on channel=0 note=59 velocity=45 time=0
note_on channel=0 note=59 velocity=0 time=0.19480525
note_on channel=0 note=65 velocity=45 time=0
note_on channel=0 note=65 velocity=0 time=0.00165562916667
note_on channel=0 note=50 velocity=0 time=0
note_on channel=0 note=43 velocity=0 time=0
note_on channel=0 note=43 velocity=58 time=0
note_on channel=0 note=50 velocity=55 time=0.1986755
note_on channel=0 note=55 velocity=53 time=0.1986755
note_on channel=0 note=55 velocity=0 time=0.1986755
note_on channel=0 note=59 velocity=56 time=0
note_on channel=0 note=59 velocity=0 time=0.00162337708333
note_on channel=0 note=65 velocity=58 time=0
note_on channel=0 note=65 velocity=0 time=0.175324725
note_on channel=0 note=55 velocity=47 time=0.019480525
note_on channel=0 note=55 velocity=0 time=0.19480525
note_on channel=0 note=59 velocity=45 time=0
note_on channel=0 note=59 velocity=0 time=0.00171232916667
note_on channel=0 note=65 velocity=45 time=0
control_change channel=0 control=91 value=127 time=0
control_change channel=0 control=91 value=127 time=0
note_on channel=0 note=65 velocity=0 time=0.00165562916667
note_on channel=0 note=50 velocity=0 time=0
note_on channel=0 note=43 velocity=0 time=0
note_on channel=0 note=43 velocity=61 time=0
control_change channel=0 control=64 value=0 time=0.00827814583333
control_change channel=0 control=64 value=127 time=0.150662254167
note_on channel=0 note=51 velocity=57 time=0.0397351
note_on channel=0 note=57 velocity=56 time=0.1986755
note_on channel=0 note=57 velocity=0 time=0.1986755
note_on channel=0 note=60 velocity=60 time=0
note_on channel=0 note=60 velocity=0 time=0.1986755
note_on channel=0 note=66 velocity=63 time=0
note_on channel=0 note=66 velocity=0 time=0.17880795
note_on channel=0 note=57 velocity=50 time=0.00170068125
note_on channel=0 note=57 velocity=0 time=0.20408175
note_on channel=0 note=60 velocity=47 time=0
note_on channel=0 note=60 velocity=0 time=0.20408175
note_on channel=0 note=66 velocity=47 time=0
note_on channel=0 note=66 velocity=0 time=0.00165562916667
note_on channel=0 note=51 velocity=0 time=0
note_on channel=0 note=43 velocity=0 time=0
note_on channel=0 note=43 velocity=62 time=0
note_on channel=0 note=51 velocity=57 time=0.1986755
note_on channel=0 note=57 velocity=56 time=0.1986755
note_on channel=0 note=57 velocity=0 time=0.1986755
note_on channel=0 note=60 velocity=60 time=0
note_on channel=0 note=60 velocity=0 time=0.1986755
note_on channel=0 note=66 velocity=62 time=0
note_on channel=0 note=66 velocity=0 time=0.17880795
note_on channel=0 note=57 velocity=50 time=0.00171232916667
note_on channel=0 note=57 velocity=0 time=0.2054795
note_on channel=0 note=60 velocity=48 time=0
note_on channel=0 note=60 velocity=0 time=0.00181159375
note_on channel=0 note=66 velocity=48 time=0
control_change channel=0 control=91 value=127 time=0
control_change channel=0 control=91 value=127 time=0
note_on channel=0 note=66 velocity=0 time=0.00178571458333
note_on channel=0 note=51 velocity=0 time=0
note_on channel=0 note=43 velocity=0 time=0
note_on channel=0 note=43 velocity=65 time=0
control_change channel=0 control=64 value=0 time=0.0232142895833
note_on channel=0 note=52 velocity=60 time=0.191071460417
control_change channel=0 control=64 value=127 time=0.0607142958333
note_on channel=0 note=55 velocity=58 time=0.153571454167
note_on channel=0 note=55 velocity=0 time=0.00166666666667
note_on channel=0 note=60 velocity=63 time=0
note_on channel=0 note=60 velocity=0 time=0.2
note_on channel=0 note=67 velocity=66 time=0
note_on channel=0 note=67 velocity=0 time=0.18
note_on channel=0 note=55 velocity=51 time=0.00166666666667
note_on channel=0 note=55 velocity=0 time=0.2
note_on channel=0 note=60 velocity=50 time=0
note_on channel=0 note=60 velocity=0 time=0.2
note_on channel=0 note=67 velocity=50 time=0
note_on channel=0 note=67 velocity=0 time=0.00174825208333
note_on channel=0 note=52 velocity=0 time=0
note_on channel=0 note=43 velocity=0 time=0
note_on channel=0 note=43 velocity=65 time=0
note_on channel=0 note=52 velocity=60 time=0.20979025
note_on channel=0 note=55 velocity=58 time=0.20979025
note_on channel=0 note=55 velocity=0 time=0.00166666666667
note_on channel=0 note=60 velocity=62 time=0
note_on channel=0 note=60 velocity=0 time=0.2
note_on channel=0 note=67 velocity=65 time=0
note_on channel=0 note=67 velocity=0 time=0.18
note_on channel=0 note=55 velocity=52 time=0.02
note_on channel=0 note=55 velocity=0 time=0.2
note_on channel=0 note=60 velocity=50 time=0
note_on channel=0 note=60 velocity=0 time=0.00178571458333
note_on channel=0 note=67 velocity=50 time=0
control_change channel=0 control=91 value=127 time=0
control_change channel=0 control=91 value=127 time=0
note_on channel=0 note=67 velocity=0 time=0.00166666666667
note_on channel=0 note=52 velocity=0 time=0
note_on channel=0 note=43 velocity=0 time=0
note_on channel=0 note=43 velocity=55 time=0
control_change channel=0 control=64 value=0 time=0.0116666666667
control_change channel=0 control=64 value=127 time=0.128333333333
note_on channel=0 note=50 velocity=51 time=0.06
note_on channel=0 note=55 velocity=50 time=0.2
note_on channel=0 note=55 velocity=0 time=0.2
note_on channel=0 note=60 velocity=53 time=0
note_on channel=0 note=60 velocity=0 time=0.2
note_on channel=0 note=65 velocity=56 time=0
note_on channel=0 note=65 velocity=0 time=0.18
note_on channel=0 note=55 velocity=45 time=0.0016339875
note_on channel=0 note=55 velocity=0 time=0.1960785
note_on channel=0 note=60 velocity=42 time=0
note_on channel=0 note=60 velocity=0 time=0.1960785
note_on channel=0 note=65 velocity=42 time=0
note_on channel=0 note=65 velocity=0 time=0.00166666666667
note_on channel=0 note=50 velocity=0 time=0
note_on channel=0 note=43 velocity=0 time=0
note_on channel=0 note=43 velocity=55 time=0
note_on channel=0 note=50 velocity=51 time=0.2
note_on channel=0 note=55 velocity=50 time=0.2
note_on channel=0 note=55 velocity=0 time=0.2
note_on channel=0 note=60 velocity=53 time=0
note_on channel=0 note=60 velocity=0 time=0.2
note_on channel=0 note=65 velocity=55 time=0
note_on channel=0 note=65 velocity=0 time=0.18
note_on channel=0 note=55 velocity=45 time=0.0016339875
note_on channel=0 note=55 velocity=0 time=0.1960785
note_on channel=0 note=60 velocity=43 time=0
note_on channel=0 note=60 velocity=0 time=0.1960785
note_on channel=0 note=65 velocity=43 time=0
control_change channel=0 control=91 value=127 time=0
control_change channel=0 control=91 value=127 time=0
note_on channel=0 note=65 velocity=0 time=0.00177305
note_on channel=0 note=50 velocity=0 time=0
note_on channel=0 note=43 velocity=0 time=0
note_on channel=0 note=43 velocity=55 time=0
control_change channel=0 control=64 value=0 time=0.0177305
note_on channel=0 note=50 velocity=51 time=0.00166666666667
control_change channel=0 control=64 value=127 time=0.0216666666667
note_on channel=0 note=55 velocity=50 time=0.178333333333
note_on channel=0 note=55 velocity=0 time=0.2
note_on channel=0 note=59 velocity=53 time=0
note_on channel=0 note=59 velocity=0 time=0.2
note_on channel=0 note=65 velocity=56 time=0
note_on channel=0 note=65 velocity=0 time=0.18
note_on channel=0 note=55 velocity=45 time=0.02
note_on channel=0 note=55 velocity=0 time=0.2
note_on channel=0 note=59 velocity=42 time=0
note_on channel=0 note=59 velocity=0 time=0.2
note_on channel=0 note=65 velocity=42 time=0
note_on channel=0 note=65 velocity=0 time=0.00174825208333
note_on channel=0 note=50 velocity=0 time=0
note_on channel=0 note=43 velocity=0 time=0
note_on channel=0 note=43 velocity=55 time=0
note_on channel=0 note=50 velocity=51 time=0.00167785208333
note_on channel=0 note=55 velocity=50 time=0.20134225
note_on channel=0 note=55 velocity=0 time=0.20134225
note_on channel=0 note=59 velocity=53 time=0
note_on channel=0 note=59 velocity=0 time=0.20134225
note_on channel=0 note=65 velocity=55 time=0
note_on channel=0 note=65 velocity=0 time=0.181208025
note_on channel=0 note=55 velocity=45 time=0.020134225
note_on channel=0 note=55 velocity=0 time=0.20134225
note_on channel=0 note=59 velocity=43 time=0
note_on channel=0 note=59 velocity=0 time=0.20134225
note_on channel=0 note=65 velocity=43 time=0
control_change channel=0 control=91 value=127 time=0
control_change channel=0 control=91 value=127 time=0
note_on channel=0 note=65 velocity=0 time=0.00170068125
note_on channel=0 note=50 velocity=0 time=0
note_on channel=0 note=43 velocity=0 time=0
note_on channel=0 note=36 velocity=57 time=0
control_change channel=0 control=64 value=0 time=0.01530613125
control_change channel=0 control=64 value=127 time=0.1190476875
note_on channel=0 note=48 velocity=55 time=0.06972793125
note_on channel=0 note=55 velocity=53 time=0.20408175
note_on channel=0 note=55 velocity=0 time=0.20408175
note_on channel=0 note=58 velocity=56 time=0
note_on channel=0 note=58 velocity=0 time=0.00167785208333
note_on channel=0 note=64 velocity=60 time=0
note_on channel=0 note=64 velocity=0 time=0.181208025
note_on channel=0 note=55 velocity=46 time=0.020134225
note_on channel=0 note=55 velocity=0 time=0.20134225
note_on channel=0 note=58 velocity=45 time=0
note_on channel=0 note=58 velocity=0 time=0.00177305
note_on channel=0 note=64 velocity=45 time=0
note_on channel=0 note=64 velocity=0 time=0.00170068125
note_on channel=0 note=48 velocity=0 time=0
note_on channel=0 note=36 velocity=0 time=0
note_on channel=0 note=36 velocity=58 time=0
note_on channel=0 note=48 velocity=55 time=0.20408175
note_on channel=0 note=55 velocity=53 time=0.20408175
note_on channel=0 note=55 velocity=0 time=0.20408175
note_on channel=0 note=58 velocity=56 time=0
note_on channel=0 note=58 velocity=0 time=0.00167785208333
note_on channel=0 note=64 velocity=58 time=0
note_on channel=0 note=64 velocity=0 time=0.181208025
note_on channel=0 note=55 velocity=47 time=0.020134225
note_on channel=0 note=55 velocity=0 time=0.20134225
note_on channel=0 note=58 velocity=45 time=0
note_on channel=0 note=58 velocity=0 time=0.00174825208333
note_on channel=0 note=64 velocity=45 time=0
note_on channel=0 note=64 velocity=0 time=0.00170068125
note_on channel=0 note=48 velocity=0 time=0
note_on channel=0 note=36 velocity=0 time=0
note_on channel=0 note=36 velocity=55 time=0
control_change channel=0 control=64 value=0 time=0.01530613125
control_change channel=0 control=64 value=127 time=0.1632654
note_on channel=0 note=48 velocity=51 time=0.0238095375
note_on channel=0 note=53 velocity=50 time=0.20408175
note_on channel=0 note=53 velocity=0 time=0
note_on channel=0 note=57 velocity=53 time=0
note_on channel=0 note=57 velocity=0 time=0.1986755
note_on channel=0 note=60 velocity=55 time=0
note_on channel=0 note=60 velocity=0 time=0.034013625
note_on channel=0 note=65 velocity=53 time=0
note_on channel=0 note=65 velocity=0 time=0.20408175
note_on channel=0 note=60 velocity=53 time=0
note_on channel=0 note=60 velocity=0 time=0.20408175
note_on channel=0 note=57 velocity=53 time=0
note_on channel=0 note=57 velocity=0 time=0
note_on channel=0 note=60 velocity=55 time=0
note_on channel=0 note=60 velocity=0 time=0
note_on channel=0 note=57 velocity=50 time=0
note_on channel=0 note=57 velocity=0 time=0.20408175
note_on channel=0 note=53 velocity=47 time=0
note_on channel=0 note=53 velocity=0 time=0.20408175
note_on channel=0 note=57 velocity=46 time=0
note_on channel=0 note=57 velocity=0 time=0
note_on channel=0 note=53 velocity=46 time=0
note_on channel=0 note=53 velocity=0 time=0.2112675
note_on channel=0 note=50 velocity=42 time=0
note_on channel=0 note=50 velocity=0 time=0
note_on channel=0 note=53 velocity=43 time=0
note_on channel=0 note=53 velocity=0 time=0
note_on channel=0 note=50 velocity=38 time=0
note_on channel=0 note=50 velocity=0 time=0
note_on channel=0 note=48 velocity=0 time=0
note_on channel=0 note=36 velocity=0 time=0.0017605625
note_on channel=0 note=36 velocity=55 time=0
control_change channel=0 control=64 value=0 time=0.0158450625
note_on channel=0 note=50 velocity=51 time=0.193661875
control_change channel=0 control=64 value=127 time=0.0369718125
note_on channel=0 note=67 velocity=50 time=0.1742956875
note_on channel=0 note=67 velocity=0 time=0.2112675
note_on channel=0 note=71 velocity=53 time=0
note_on channel=0 note=71 velocity=0 time=0.2112675
note_on channel=0 note=74 velocity=55 time=0
note_on channel=0 note=74 velocity=0 time=0.2112675
note_on channel=0 note=77 velocity=60 time=0
note_on channel=0 note=77 velocity=0 time=0.2112675
note_on channel=0 note=74 velocity=55 time=0
note_on channel=0 note=74 velocity=0 time=0.2112675
note_on channel=0 note=71 velocity=53 time=0
note_on channel=0 note=71 velocity=0 time=0
note_on channel=0 note=74 velocity=56 time=0
note_on channel=0 note=74 velocity=0 time=0.2362205
note_on channel=0 note=71 velocity=53 time=0
note_on channel=0 note=71 velocity=0 time=0.2362205
note_on channel=0 note=67 velocity=56 time=0
note_on channel=0 note=67 velocity=0 time=0.2362205
note_on channel=0 note=71 velocity=53 time=0
note_on channel=0 note=71 velocity=0 time=0
note_on channel=0 note=62 velocity=55 time=0
note_on channel=0 note=62 velocity=0 time=0
note_on channel=0 note=65 velocity=50 time=0
note_on channel=0 note=65 velocity=0 time=0
note_on channel=0 note=64 velocity=50 time=0
note_on channel=0 note=64 velocity=0 time=0
note_on channel=0 note=62 velocity=50 time=0
note_on channel=0 note=62 velocity=0 time=0.4761905
note_on channel=0 note=50 velocity=0 time=0
control_change channel=0 control=64 value=0 time=0
note_on channel=0 note=72 velocity=50 time=0.00396825416667
note_on channel=0 note=67 velocity=50 time=0
note_on channel=0 note=64 velocity=50 time=0
note_on channel=0 note=36 velocity=0 time=0
note_on channel=0 note=36 velocity=53 time=0
note_on channel=0 note=48 velocity=53 time=0
control_change channel=0 control=64 value=127 time=1.26587307917
note_on channel=0 note=64 velocity=0 time=4.44841292083
note_on channel=0 note=67 velocity=0 time=0
note_on channel=0 note=72 velocity=0 time=0
note_on channel=0 note=48 velocity=0 time=0
note_on channel=0 note=36 velocity=0 time=0
control_change channel=0 control=64 value=0 time=1.21825402917
control_change channel=2 control=91 value=127 time=0
control_change channel=2 control=93 value=0 time=0
control_change channel=3 control=91 value=127 time=0
control_change channel=3 control=93 value=0 time=0
control_change channel=4 control=91 value=127 time=0
control_change channel=4 control=93 value=0 time=0
control_change channel=5 control=91 value=127 time=0
control_change channel=5 control=93 value=0 time=0
control_change channel=3 control=7 value=127 time=0.480692
note_on channel=3 note=60 velocity=53 time=0
note_on channel=3 note=60 velocity=0 time=0.480692
note_on channel=3 note=62 velocity=54 time=0
note_on channel=3 note=62 velocity=0 time=0.480692
note_on channel=3 note=64 velocity=56 time=0
note_on channel=3 note=64 velocity=0 time=0
note_on channel=3 note=65 velocity=60 time=0
note_on channel=3 note=65 velocity=0 time=0
note_on channel=3 note=67 velocity=58 time=0
note_on channel=3 note=67 velocity=0 time=0.11194025
note_on channel=3 note=65 velocity=58 time=0
note_on channel=3 note=65 velocity=0 time=0
note_on channel=3 note=64 velocity=60 time=0
note_on channel=3 note=64 velocity=0 time=0.436507958333
note_on channel=3 note=69 velocity=60 time=0.0396825416667
note_on channel=3 note=69 velocity=0 time=0
note_on channel=3 note=62 velocity=56 time=0
note_on channel=3 note=62 velocity=0 time=0.447154583333
note_on channel=3 note=67 velocity=60 time=0
note_on channel=3 note=67 velocity=0 time=0.7086615
note_on channel=3 note=69 velocity=59 time=0
note_on channel=3 note=69 velocity=0 time=0.2362205
note_on channel=3 note=67 velocity=59 time=0
note_on channel=3 note=67 velocity=0 time=0.2362205
note_on channel=3 note=65 velocity=59 time=0
note_on channel=3 note=65 velocity=0 time=0.2362205
note_on channel=3 note=64 velocity=58 time=0
note_on channel=3 note=64 velocity=0 time=0
note_on channel=3 note=65 velocity=58 time=0
control_change channel=2 control=7 value=127 time=0.241869979167
note_on channel=2 note=67 velocity=53 time=0
note_on channel=3 note=65 velocity=0 time=0
note_on channel=3 note=64 velocity=58 time=0
note_on channel=3 note=64 velocity=0 time=0.2362205
control_change channel=3 control=7 value=110 time=0
note_on channel=3 note=62 velocity=57 time=0
note_on channel=2 note=67 velocity=0 time=0.2362205
note_on channel=2 note=69 velocity=54 time=0
note_on channel=3 note=62 velocity=0 time=0
note_on channel=3 note=60 velocity=57 time=0
note_on channel=3 note=60 velocity=0 time=0.2362205
note_on channel=3 note=62 velocity=56 time=0
note_on channel=2 note=69 velocity=0 time=0
note_on channel=2 note=71 velocity=55 time=0
note_on channel=3 note=62 velocity=0 time=0
note_on channel=3 note=60 velocity=56 time=0
note_on channel=3 note=60 velocity=0 time=0.2439025
note_on channel=3 note=59 velocity=56 time=0
note_on channel=2 note=71 velocity=0 time=0
note_on channel=2 note=72 velocity=60 time=0
note_on channel=3 note=59 velocity=0 time=0
note_on channel=3 note=57 velocity=56 time=0
note_on channel=3 note=57 velocity=0 time=0.472441
note_on channel=3 note=66 velocity=56 time=0
note_on channel=2 note=72 velocity=0 time=0
note_on channel=2 note=74 velocity=57 time=0
note_on channel=2 note=74 velocity=0 time=0.11194025
note_on channel=2 note=72 velocity=57 time=0
note_on channel=2 note=72 velocity=0 time=0
note_on channel=2 note=71 velocity=57 time=0
note_on channel=3 note=66 velocity=0 time=0
note_on channel=3 note=67 velocity=60 time=0
note_on channel=2 note=71 velocity=0 time=0.433070916667
note_on channel=2 note=76 velocity=60 time=0.0393700833333
note_on channel=2 note=76 velocity=0 time=0
note_on channel=2 note=69 velocity=56 time=0
note_on channel=2 note=69 velocity=0 time=0.443548416667
note_on channel=2 note=74 velocity=60 time=0
note_on channel=3 note=67 velocity=0 time=0
note_on channel=3 note=66 velocity=57 time=0
note_on channel=3 note=66 velocity=0 time=0.234375
note_on channel=3 note=64 velocity=57 time=0
note_on channel=3 note=64 velocity=0 time=0.234375
note_on channel=3 note=66 velocity=57 time=0
note_on channel=2 note=74 velocity=0 time=0.234375
note_on channel=2 note=76 velocity=57 time=0
note_on channel=3 note=66 velocity=0 time=0.1953125
note_on channel=2 note=76 velocity=0 time=0.0390625
note_on channel=2 note=74 velocity=57 time=0
note_on channel=3 note=62 velocity=57 time=0
note_on channel=2 note=74 velocity=0 time=0.234375
note_on channel=2 note=72 velocity=56 time=0
note_on channel=2 note=72 velocity=0 time=0
note_on channel=2 note=71 velocity=55 time=0
note_on channel=3 note=62 velocity=0 time=0
note_on channel=3 note=67 velocity=59 time=0
note_on channel=2 note=71 velocity=0 time=0.18
note_on channel=2 note=67 velocity=55 time=0.06
note_on channel=2 note=67 velocity=0 time=0
control_change channel=2 control=7 value=110 time=0
note_on channel=2 note=69 velocity=56 time=0
note_on channel=3 note=67 velocity=0 time=0
note_on channel=3 note=65 velocity=58 time=0
control_change channel=4 control=7 value=120 time=0
note_on channel=4 note=55 velocity=50 time=0
note_on channel=2 note=69 velocity=0 time=0.2362205
note_on channel=2 note=71 velocity=57 time=0
note_on channel=2 note=71 velocity=0 time=0
note_on channel=2 note=72 velocity=57 time=0
note_on channel=3 note=65 velocity=0 time=0
note_on channel=3 note=64 velocity=57 time=0
note_on channel=4 note=55 velocity=0 time=0
note_on channel=4 note=57 velocity=52 time=0
note_on channel=2 note=72 velocity=0 time=0.234375
note_on channel=2 note=71 velocity=53 time=0
note_on channel=2 note=71 velocity=0 time=0.234375
note_on channel=2 note=72 velocity=54 time=0
note_on channel=3 note=64 velocity=0 time=0
note_on channel=3 note=62 velocity=56 time=0
note_on channel=4 note=57 velocity=0 time=0
note_on channel=4 note=59 velocity=55 time=0
note_on channel=2 note=72 velocity=0 time=0.234375
note_on channel=2 note=74 velocity=55 time=0
note_on channel=2 note=74 velocity=0 time=0.234375
note_on channel=2 note=76 velocity=56 time=0
note_on channel=3 note=62 velocity=0 time=0
note_on channel=3 note=60 velocity=55 time=0
note_on channel=4 note=59 velocity=0 time=0
note_on channel=4 note=60 velocity=60 time=0
note_on channel=2 note=76 velocity=0 time=0.234375
note_on channel=2 note=74 velocity=57 time=0
note_on channel=2 note=74 velocity=0 time=0
note_on channel=2 note=76 velocity=58 time=0
note_on channel=3 note=60 velocity=0 time=0
note_on channel=2 note=76 velocity=0 time=0
note_on channel=2 note=78 velocity=59 time=0
note_on channel=4 note=60 velocity=0 time=0
note_on channel=4 note=62 velocity=57 time=0
note_on channel=4 note=62 velocity=0 time=0.111111125
note_on channel=4 note=60 velocity=57 time=0
note_on channel=2 note=78 velocity=0 time=0
note_on channel=2 note=79 velocity=60 time=0
note_on channel=4 note=60 velocity=0 time=0
note_on channel=4 note=59 velocity=57 time=0
note_on channel=4 note=59 velocity=0 time=0.4296875
note_on channel=2 note=79 velocity=0 time=0.0390625
note_on channel=2 note=71 velocity=56 time=0
note_on channel=3 note=67 velocity=60 time=0
note_on channel=4 note=64 velocity=60 time=0
note_on channel=2 note=71 velocity=0 time=0
note_on channel=2 note=72 velocity=60 time=0
note_on channel=4 note=64 velocity=0 time=0
note_on channel=4 note=57 velocity=56 time=0
note_on channel=2 note=72 velocity=0 time=0.447154583333
note_on channel=4 note=57 velocity=0 time=0
note_on channel=2 note=69 velocity=55 time=0
note_on channel=3 note=67 velocity=0 time=0
note_on channel=3 note=65 velocity=58 time=0
note_on channel=4 note=62 velocity=60 time=0
note_on channel=3 note=65 velocity=0 time=0.234375
note_on channel=3 note=64 velocity=58 time=0
note_on channel=2 note=69 velocity=0 time=0.234375
note_on channel=2 note=74 velocity=58 time=0
note_on channel=3 note=64 velocity=0 time=0
note_on channel=3 note=65 velocity=58 time=0
note_on channel=2 note=74 velocity=0 time=0.234375
note_on channel=2 note=72 velocity=57 time=0
note_on channel=4 note=62 velocity=0 time=0
note_on channel=4 note=64 velocity=58 time=0
note_on channel=2 note=72 velocity=0 time=0.234375
note_on channel=2 note=71 velocity=56 time=0
note_on channel=4 note=64 velocity=0 time=0
note_on channel=4 note=62 velocity=57 time=0
note_on channel=2 note=71 velocity=0 time=0.234375
note_on channel=2 note=69 velocity=55 time=0
note_on channel=4 note=62 velocity=0 time=0
note_on channel=4 note=60 velocity=56 time=0
note_on channel=2 note=69 velocity=0 time=0.234375
note_on channel=2 note=67 velocity=54 time=0
note_on channel=4 note=60 velocity=0 time=0
note_on channel=4 note=59 velocity=55 time=0
note_on channel=3 note=65 velocity=0 time=0.234375
note_on channel=3 note=65 velocity=57 time=0
note_on channel=4 note=59 velocity=0 time=0.1953125
note_on channel=3 note=65 velocity=0 time=0
note_on channel=3 note=64 velocity=57 time=0
control_change channel=4 control=7 value=100 time=0
note_on channel=4 note=60 velocity=60 time=0
control_change channel=5 control=7 value=120 time=0
note_on channel=5 note=48 velocity=51 time=0
note_on channel=2 note=67 velocity=0 time=0.2419355
note_on channel=2 note=67 velocity=56 time=0
note_on channel=2 note=67 velocity=0 time=0
note_on channel=2 note=65 velocity=55 time=0
note_on channel=3 note=64 velocity=0 time=0
note_on channel=3 note=62 velocity=57 time=0
note_on channel=5 note=48 velocity=0 time=0
note_on channel=5 note=50 velocity=53 time=0
note_on channel=2 note=65 velocity=0 time=0.234375
note_on channel=2 note=64 velocity=55 time=0
note_on channel=2 note=64 velocity=0 time=0.234375
note_on channel=2 note=65 velocity=55 time=0
note_on channel=4 note=60 velocity=0 time=0
note_on channel=4 note=58 velocity=58 time=0
note_on channel=5 note=50 velocity=0 time=0
note_on channel=5 note=52 velocity=56 time=0
note_on channel=2 note=65 velocity=0 time=0.234375
note_on channel=2 note=67 velocity=55 time=0
note_on channel=2 note=67 velocity=0 time=0.234375
note_on channel=2 note=69 velocity=55 time=0
note_on channel=3 note=62 velocity=0 time=0
note_on channel=3 note=60 velocity=56 time=0
note_on channel=4 note=58 velocity=0 time=0
note_on channel=4 note=57 velocity=56 time=0
note_on channel=5 note=52 velocity=0 time=0
note_on channel=5 note=53 velocity=60 time=0
note_on channel=2 note=69 velocity=0 time=0.234375
note_on channel=2 note=67 velocity=56 time=0
note_on channel=4 note=57 velocity=0 time=0.1953125
note_on channel=2 note=67 velocity=0 time=0.0390625
note_on channel=2 note=69 velocity=55 time=0
note_on channel=3 note=60 velocity=0 time=0
note_on channel=3 note=65 velocity=60 time=0
note_on channel=4 note=62 velocity=60 time=0
note_on channel=2 note=69 velocity=0 time=0
note_on channel=2 note=71 velocity=57 time=0
note_on channel=5 note=53 velocity=0 time=0
note_on channel=5 note=55 velocity=57 time=0
note_on channel=5 note=55 velocity=0 time=0.109489
note_on channel=5 note=53 velocity=57 time=0
note_on channel=2 note=71 velocity=0 time=0
note_on channel=2 note=72 velocity=59 time=0
note_on channel=3 note=65 velocity=0 time=0
note_on channel=4 note=62 velocity=0 time=0
note_on channel=4 note=55 velocity=56 time=0
note_on channel=5 note=53 velocity=0 time=0
note_on channel=5 note=52 velocity=57 time=0
note_on channel=3 note=67 velocity=57 time=0.2362205
note_on channel=4 note=55 velocity=0 time=0.196850416667
note_on channel=5 note=52 velocity=0 time=0
note_on channel=3 note=67 velocity=0 time=0.0393700833333
note_on channel=3 note=65 velocity=57 time=0
note_on channel=4 note=60 velocity=60 time=0
note_on channel=5 note=57 velocity=60 time=0
note_on channel=3 note=65 velocity=0 time=0.2362205
note_on channel=3 note=64 velocity=57 time=0
note_on channel=3 note=64 velocity=0 time=0
note_on channel=3 note=65 velocity=57 time=0
note_on channel=4 note=60 velocity=0 time=0
note_on channel=5 note=57 velocity=0 time=0
note_on channel=5 note=50 velocity=55 time=0
note_on channel=4 note=57 velocity=55 time=0.2419355
note_on channel=3 note=65 velocity=0 time=0.201612916667
note_on channel=5 note=50 velocity=0 time=0
note_on channel=3 note=62 velocity=56 time=0
note_on channel=4 note=57 velocity=0 time=0
note_on channel=4 note=59 velocity=56 time=0
note_on channel=5 note=55 velocity=60 time=0
note_on channel=4 note=59 velocity=0 time=0.2362205
note_on channel=4 note=60 velocity=58 time=0
note_on channel=2 note=72 velocity=0 time=0.2362205
note_on channel=2 note=71 velocity=57 time=0
note_on channel=3 note=62 velocity=0 time=0
note_on channel=3 note=67 velocity=62 time=0
note_on channel=4 note=60 velocity=0 time=0
note_on channel=4 note=62 velocity=59 time=0
note_on channel=5 note=55 velocity=0 time=0.2362205
note_on channel=5 note=57 velocity=59 time=0
note_on channel=5 note=57 velocity=0 time=0
note_on channel=5 note=55 velocity=58 time=0
note_on channel=5 note=55 velocity=0 time=0.225564
note_on channel=5 note=53 velocity=57 time=0
note_on channel=2 note=71 velocity=0 time=0
note_on channel=4 note=62 velocity=0 time=0
note_on channel=4 note=55 velocity=60 time=0
note_on channel=5 note=53 velocity=0 time=0
note_on channel=5 note=52 velocity=56 time=0
note_on channel=5 note=52 velocity=0 time=0.177165375
note_on channel=5 note=53 velocity=57 time=0.059055125
control_change channel=2 control=7 value=127 time=0.2362205
note_on channel=2 note=72 velocity=60 time=0
note_on channel=5 note=53 velocity=0 time=0
control_change channel=5 control=7 value=100 time=0
note_on channel=5 note=52 velocity=56 time=0
note_on channel=5 note=52 velocity=0 time=0.2362205
note_on channel=5 note=50 velocity=55 time=0
note_on channel=2 note=72 velocity=0 time=0.2362205
note_on channel=2 note=74 velocity=63 time=0
note_on channel=3 note=67 velocity=0 time=0
note_on channel=4 note=55 velocity=0 time=0
note_on channel=5 note=50 velocity=0 time=0
note_on channel=5 note=48 velocity=54 time=0
note_on channel=5 note=48 velocity=0 time=0.177165375
note_on channel=5 note=50 velocity=57 time=0.059055125
note_on channel=2 note=74 velocity=0 time=0
note_on channel=2 note=76 velocity=64 time=0
note_on channel=4 note=55 velocity=53 time=0
note_on channel=5 note=50 velocity=0 time=0
note_on channel=5 note=48 velocity=56 time=0
note_on channel=5 note=48 velocity=0 time=0.2419355
note_on channel=5 note=47 velocity=55 time=0
note_on channel=2 note=76 velocity=0 time=0
note_on channel=2 note=77 velocity=69 time=0
note_on channel=4 note=55 velocity=0 time=0
note_on channel=4 note=57 velocity=54 time=0
note_on channel=5 note=47 velocity=0 time=0
note_on channel=5 note=45 velocity=54 time=0
note_on channel=5 note=45 velocity=0 time=0.433070916667
note_on channel=4 note=57 velocity=0 time=0.0393700833333
note_on channel=4 note=59 velocity=55 time=0
note_on channel=5 note=50 velocity=57 time=0
note_on channel=2 note=77 velocity=0 time=0
note_on channel=2 note=79 velocity=66 time=0
note_on channel=2 note=79 velocity=0 time=0.11194025
note_on channel=2 note=77 velocity=66 time=0
note_on channel=2 note=77 velocity=0 time=0
note_on channel=2 note=76 velocity=66 time=0
note_on channel=4 note=59 velocity=0 time=0
note_on channel=4 note=60 velocity=60 time=0
note_on channel=5 note=50 velocity=0 time=0
note_on channel=5 note=57 velocity=60 time=0
note_on channel=2 note=76 velocity=0 time=0.4296875
note_on channel=2 note=81 velocity=69 time=0.0390625
note_on channel=5 note=57 velocity=0 time=0
note_on channel=5 note=54 velocity=57 time=0
note_on channel=4 note=60 velocity=0 time=0.234375
note_on channel=4 note=62 velocity=58 time=0
note_on channel=4 note=62 velocity=0 time=0.1171875
note_on channel=4 note=60 velocity=58 time=0
note_on channel=2 note=81 velocity=0 time=0.1171875
note_on channel=2 note=74 velocity=64 time=0
note_on channel=4 note=60 velocity=0 time=0
note_on channel=4 note=59 velocity=58 time=0
note_on channel=5 note=54 velocity=0 time=0
note_on channel=5 note=55 velocity=58 time=0
note_on channel=5 note=55 velocity=0 time=0.201612916667
note_on channel=5 note=57 velocity=58 time=0
note_on channel=2 note=74 velocity=0 time=0.201612916667
note_on channel=4 note=59 velocity=0 time=0
note_on channel=2 note=79 velocity=69 time=0
note_on channel=4 note=64 velocity=60 time=0
note_on channel=5 note=57 velocity=0 time=0
note_on channel=5 note=58 velocity=60 time=0
note_on channel=5 note=58 velocity=0 time=0.2362205
note_on channel=5 note=55 velocity=58 time=0
note_on channel=4 note=64 velocity=0 time=0
note_on channel=4 note=57 velocity=56 time=0
note_on channel=5 note=55 velocity=0 time=0
note_on channel=5 note=49 velocity=56 time=0
note_on channel=2 note=79 velocity=0 time=0.2362205
note_on channel=2 note=81 velocity=67 time=0
note_on channel=4 note=57 velocity=0 time=0.196850416667
note_on channel=2 note=81 velocity=0 time=0
note_on channel=2 note=79 velocity=66 time=0
note_on channel=4 note=62 velocity=60 time=0
note_on channel=5 note=49 velocity=0 time=0
note_on channel=5 note=50 velocity=57 time=0
note_on channel=2 note=79 velocity=0 time=0.22727275
note_on channel=2 note=77 velocity=64 time=0
note_on channel=2 note=77 velocity=0 time=0
note_on channel=2 note=76 velocity=63 time=0
note_on channel=5 note=50 velocity=0 time=0
note_on channel=5 note=57 velocity=58 time=0
note_on channel=4 note=62 velocity=0 time=0.2439025
note_on channel=4 note=64 velocity=57 time=0
note_on channel=2 note=76 velocity=0 time=0.203252083333
note_on channel=2 note=81 velocity=70 time=0
note_on channel=4 note=64 velocity=0 time=0
note_on channel=4 note=62 velocity=56 time=0
note_on channel=4 note=62 velocity=0 time=0.2362205
note_on channel=4 note=60 velocity=56 time=0
note_on channel=4 note=60 velocity=0 time=0.2362205
note_on channel=4 note=59 velocity=55 time=0
note_on channel=5 note=57 velocity=0 time=0
note_on channel=5 note=52 velocity=56 time=0
note_on channel=2 note=81 velocity=0 time=0.2362205
note_on channel=2 note=83 velocity=68 time=0
note_on channel=2 note=83 velocity=0 time=0
note_on channel=2 note=81 velocity=67 time=0
note_on channel=4 note=59 velocity=0 time=0
note_on channel=4 note=64 velocity=60 time=0
note_on channel=2 note=81 velocity=0 time=0
note_on channel=2 note=79 velocity=66 time=0
note_on channel=2 note=79 velocity=0 time=0
note_on channel=2 note=77 velocity=65 time=0
note_on channel=5 note=52 velocity=0 time=0
note_on channel=5 note=57 velocity=56 time=0
note_on channel=5 note=57 velocity=0 time=0.2362205
note_on channel=5 note=59 velocity=57 time=0
control_change channel=3 control=7 value=127 time=0.2362205
note_on channel=3 note=67 velocity=51 time=0
note_on channel=5 note=59 velocity=0 time=0
note_on channel=5 note=60 velocity=58 time=0
note_on channel=5 note=60 velocity=0 time=0.2362205
note_on channel=5 note=62 velocity=59 time=0
note_on channel=3 note=67 velocity=0 time=0.2362205
note_on channel=3 note=69 velocity=53 time=0
note_on channel=4 note=64 velocity=0 time=0
note_on channel=4 note=62 velocity=60 time=0
note_on channel=5 note=62 velocity=0 time=0
note_on channel=5 note=60 velocity=60 time=0
note_on channel=5 note=60 velocity=0 time=0.2362205
note_on channel=5 note=59 velocity=57 time=0
note_on channel=3 note=69 velocity=0 time=0.2362205
note_on channel=3 note=71 velocity=56 time=0
note_on channel=5 note=59 velocity=0 time=0
note_on channel=5 note=57 velocity=56 time=0
note_on channel=5 note=57 velocity=0 time=0.2362205
note_on channel=5 note=55 velocity=55 time=0
note_on channel=2 note=77 velocity=0 time=0.2362205
control_change channel=2 control=7 value=110 time=0
note_on channel=2 note=76 velocity=60 time=0
note_on channel=3 note=71 velocity=0 time=0
note_on channel=3 note=72 velocity=60 time=0
note_on channel=4 note=62 velocity=0 time=0
note_on channel=5 note=55 velocity=0 time=0
note_on channel=5 note=60 velocity=60 time=0
note_on channel=4 note=59 velocity=58 time=0.2362205
note_on channel=4 note=59 velocity=0 time=0.2362205
note_on channel=4 note=60 velocity=60 time=0
note_on channel=5 note=60 velocity=0 time=0
note_on channel=2 note=76 velocity=0 time=0
note_on channel=2 note=78 velocity=57 time=0
note_on channel=3 note=72 velocity=0 time=0
note_on channel=3 note=74 velocity=57 time=0
note_on channel=4 note=60 velocity=0 time=0
note_on channel=4 note=57 velocity=57 time=0
note_on channel=3 note=74 velocity=0 time=0.11194025
note_on channel=3 note=72 velocity=57 time=0
note_on channel=4 note=57 velocity=0 time=0.055970125
note_on channel=2 note=78 velocity=0 time=0
note_on channel=2 note=79 velocity=63 time=0
note_on channel=3 note=72 velocity=0 time=0
note_on channel=3 note=71 velocity=57 time=0
note_on channel=4 note=64 velocity=58 time=0
note_on channel=4 note=64 velocity=0 time=0.2362205
note_on channel=4 note=62 velocity=58 time=0
note_on channel=3 note=71 velocity=0 time=0.196850416667
note_on channel=3 note=76 velocity=60 time=0.0393700833333
note_on channel=4 note=62 velocity=0 time=0
note_on channel=4 note=60 velocity=57 time=0
note_on channel=4 note=60 velocity=0 time=0
note_on channel=4 note=59 velocity=57 time=0
note_on channel=3 note=76 velocity=0 time=0
note_on channel=3 note=69 velocity=56 time=0
note_on channel=4 note=59 velocity=0 time=0
note_on channel=4 note=60 velocity=60 time=0
note_on channel=4 note=60 velocity=0 time=0.182926875
note_on channel=4 note=57 velocity=54 time=0.060975625
note_on channel=3 note=69 velocity=0 time=0.203252083333
note_on channel=3 note=74 velocity=60 time=0
note_on channel=4 note=57 velocity=0 time=0
note_on channel=4 note=59 velocity=56 time=0
note_on channel=4 note=59 velocity=0 time=0.234375
note_on channel=4 note=60 velocity=58 time=0
note_on channel=2 note=79 velocity=0 time=0
note_on channel=2 note=78 velocity=63 time=0
note_on channel=4 note=60 velocity=0 time=0
note_on channel=4 note=62 velocity=60 time=0
note_on channel=3 note=74 velocity=0 time=0.0378787916667
note_on channel=3 note=76 velocity=57 time=0
note_on channel=4 note=62 velocity=0 time=0
note_on channel=4 note=60 velocity=59 time=0
note_on channel=3 note=76 velocity=0 time=0.0763359166667
note_on channel=3 note=74 velocity=56 time=0
note_on channel=4 note=60 velocity=0 time=0
note_on channel=4 note=59 velocity=58 time=0
note_on channel=3 note=74 velocity=0 time=0.115384625
note_on channel=3 note=72 velocity=55 time=0
note_on channel=4 note=59 velocity=0 time=0
note_on channel=4 note=57 velocity=57 time=0
note_on channel=2 note=78 velocity=0 time=0
note_on channel=2 note=79 velocity=60 time=0
note_on channel=3 note=72 velocity=0 time=0
note_on channel=3 note=71 velocity=54 time=0
note_on channel=4 note=57 velocity=0 time=0
note_on channel=4 note=55 velocity=56 time=0
note_on channel=2 note=79 velocity=0 time=0
note_on channel=2 note=77 velocity=59 time=0
note_on channel=2 note=77 velocity=0 time=0
note_on channel=2 note=76 velocity=58 time=0
note_on channel=3 note=71 velocity=0 time=0
control_change channel=5 control=7 value=120 time=0
note_on channel=5 note=43 velocity=54 time=0
note_on channel=2 note=76 velocity=0 time=0
note_on channel=2 note=74 velocity=57 time=0
note_on channel=2 note=74 velocity=0 time=0
note_on channel=2 note=72 velocity=56 time=0
note_on channel=4 note=55 velocity=0 time=0
note_on channel=5 note=43 velocity=0 time=0
note_on channel=5 note=45 velocity=55 time=0
note_on channel=2 note=72 velocity=0 time=0.234375
note_on channel=2 note=74 velocity=57 time=0
note_on channel=2 note=74 velocity=0 time=0
note_on channel=2 note=72 velocity=57 time=0
control_change channel=3 control=7 value=110 time=0
note_on channel=3 note=62 velocity=51 time=0
note_on channel=5 note=45 velocity=0 time=0
note_on channel=5 note=47 velocity=55 time=0
note_on channel=2 note=72 velocity=0 time=0.24
note_on channel=2 note=71 velocity=57 time=0
note_on channel=2 note=71 velocity=0 time=0
note_on channel=2 note=69 velocity=57 time=0
note_on channel=3 note=62 velocity=0 time=0
note_on channel=3 note=64 velocity=52 time=0
note_on channel=5 note=47 velocity=0 time=0
note_on channel=5 note=48 velocity=60 time=0
note_on channel=2 note=69 velocity=0 time=0.234375
note_on channel=2 note=72 velocity=58 time=0
note_on channel=2 note=72 velocity=0 time=0.234375
note_on channel=2 note=71 velocity=58 time=0
note_on channel=3 note=64 velocity=0 time=0
note_on channel=3 note=66 velocity=54 time=0
note_on channel=2 note=71 velocity=0 time=0
note_on channel=2 note=69 velocity=57 time=0
note_on channel=5 note=48 velocity=0 time=0
note_on channel=5 note=50 velocity=58 time=0
note_on channel=5 note=50 velocity=0 time=0.11194025
note_on channel=5 note=48 velocity=58 time=0
note_on channel=2 note=69 velocity=0 time=0
note_on channel=3 note=66 velocity=0 time=0
note_on channel=3 note=67 velocity=60 time=0
note_on channel=5 note=48 velocity=0 time=0
note_on channel=5 note=47 velocity=58 time=0
note_on channel=5 note=47 velocity=0 time=0.4296875
note_on channel=5 note=52 velocity=60 time=0.0390625
note_on channel=3 note=67 velocity=0 time=0
note_on channel=3 note=69 velocity=58 time=0
note_on channel=3 note=69 velocity=0 time=0.111111125
note_on channel=3 note=67 velocity=58 time=0
note_on channel=3 note=67 velocity=0 time=0
note_on channel=3 note=66 velocity=58 time=0
note_on channel=5 note=52 velocity=0 time=0
note_on channel=5 note=45 velocity=55 time=0
note_on channel=2 note=72 velocity=58 time=0.234375
note_on channel=3 note=66 velocity=0 time=0.1953125
note_on channel=5 note=45 velocity=0 time=0
note_on channel=2 note=72 velocity=0 time=0.0390625
note_on channel=3 note=71 velocity=60 time=0
note_on channel=5 note=50 velocity=60 time=0
note_on channel=2 note=69 velocity=55 time=0.234375
note_on channel=2 note=69 velocity=0 time=0
note_on channel=2 note=68 velocity=54 time=0
note_on channel=3 note=71 velocity=0 time=0
note_on channel=3 note=64 velocity=57 time=0
note_on channel=5 note=50 velocity=0 time=0.2439025
note_on channel=5 note=52 velocity=60 time=0
note_on channel=2 note=68 velocity=0 time=0.12195125
note_on channel=3 note=64 velocity=0 time=0.0813008333333
note_on channel=2 note=76 velocity=60 time=0
note_on channel=3 note=69 velocity=60 time=0
note_on channel=5 note=52 velocity=0 time=0
note_on channel=5 note=50 velocity=58 time=0
note_on channel=5 note=50 velocity=0 time=0.234375
note_on channel=5 note=48 velocity=57 time=0
note_on channel=2 note=76 velocity=0 time=0.234375
note_on channel=2 note=74 velocity=58 time=0
note_on channel=5 note=48 velocity=0 time=0
note_on channel=5 note=47 velocity=55 time=0
note_on channel=3 note=69 velocity=0 time=0.234375
note_on channel=3 note=71 velocity=58 time=0
note_on channel=2 note=74 velocity=0 time=0
note_on channel=2 note=72 velocity=56 time=0
note_on channel=3 note=71 velocity=0 time=0
note_on channel=3 note=69 velocity=58 time=0
control_change channel=4 control=7 value=120 time=0
note_on channel=4 note=52 velocity=52 time=0
note_on channel=5 note=47 velocity=0 time=0
note_on channel=2 note=72 velocity=0 time=0.2419355
note_on channel=2 note=71 velocity=56 time=0
note_on channel=3 note=69 velocity=0 time=0
note_on channel=3 note=67 velocity=58 time=0
note_on channel=2 note=71 velocity=0 time=0
note_on channel=2 note=69 velocity=54 time=0
note_on channel=3 note=67 velocity=0 time=0
note_on channel=3 note=66 velocity=58 time=0
note_on channel=4 note=52 velocity=0 time=0
note_on channel=4 note=54 velocity=54 time=0
note_on channel=2 note=69 velocity=0 time=0.2362205
note_on channel=2 note=68 velocity=54 time=0
note_on channel=2 note=68 velocity=0 time=0.2362205
note_on channel=2 note=69 velocity=54 time=0
note_on channel=3 note=66 velocity=0 time=0
note_on channel=3 note=65 velocity=57 time=0
note_on channel=4 note=54 velocity=0 time=0
note_on channel=4 note=56 velocity=56 time=0
control_change channel=5 control=7 value=100 time=0
note_on channel=5 note=50 velocity=58 time=0
note_on channel=2 note=69 velocity=0 time=0.2362205
note_on channel=2 note=71 velocity=53 time=0
note_on channel=2 note=71 velocity=0 time=0.2362205
note_on channel=2 note=72 velocity=56 time=0
note_on channel=3 note=65 velocity=0 time=0
note_on channel=3 note=64 velocity=55 time=0
note_on channel=4 note=56 velocity=0 time=0
note_on channel=4 note=57 velocity=60 time=0
note_on channel=5 note=50 velocity=0 time=0
note_on channel=5 note=48 velocity=58 time=0
note_on channel=2 note=72 velocity=0 time=0.177165375
note_on channel=2 note=66 velocity=54 time=0.059055125
note_on channel=2 note=66 velocity=0 time=0.2362205
note_on channel=2 note=69 velocity=54 time=0
note_on channel=3 note=64 velocity=0 time=0
note_on channel=3 note=62 velocity=54 time=0
note_on channel=5 note=48 velocity=0 time=0
note_on channel=5 note=53 velocity=60 time=0
note_on channel=2 note=69 velocity=0 time=0
note_on channel=2 note=68 velocity=55 time=0
note_on channel=4 note=57 velocity=0 time=0
note_on channel=4 note=59 velocity=57 time=0
note_on channel=4 note=59 velocity=0 time=0.11194025
note_on channel=4 note=57 velocity=57 time=0
note_on channel=2 note=68 velocity=0 time=0
note_on channel=2 note=71 velocity=58 time=0
note_on channel=4 note=57 velocity=0 time=0
note_on channel=4 note=56 velocity=57 time=0
note_on channel=3 note=62 velocity=0 time=0.234375
note_on channel=3 note=64 velocity=54 time=0
note_on channel=4 note=56 velocity=0 time=0.1953125
note_on channel=2 note=71 velocity=0 time=0.0390625
note_on channel=2 note=69 velocity=56 time=0
note_on channel=3 note=64 velocity=0 time=0
note_on channel=3 note=66 velocity=55 time=0
note_on channel=4 note=60 velocity=60 time=0
note_on channel=5 note=53 velocity=0 time=0
note_on channel=5 note=52 velocity=58 time=0
note_on channel=2 note=69 velocity=0 time=0.234375
note_on channel=2 note=71 velocity=56 time=0
note_on channel=3 note=66 velocity=0 time=0
note_on channel=3 note=68 velocity=55 time=0
note_on channel=2 note=71 velocity=0 time=0
note_on channel=2 note=72 velocity=58 time=0
note_on channel=3 note=68 velocity=0 time=0
note_on channel=3 note=69 velocity=57 time=0
note_on channel=4 note=60 velocity=0 time=0
note_on channel=4 note=54 velocity=56 time=0
note_on channel=3 note=69 velocity=0 time=0.2439025
note_on channel=3 note=68 velocity=56 time=0
note_on channel=2 note=72 velocity=0 time=0.203252083333
note_on channel=4 note=54 velocity=0 time=0
note_on channel=2 note=77 velocity=64 time=0
note_on channel=3 note=68 velocity=0 time=0
note_on channel=3 note=69 velocity=56 time=0
note_on channel=4 note=59 velocity=60 time=0
note_on channel=5 note=52 velocity=0 time=0
note_on channel=5 note=50 velocity=57 time=0
note_on channel=3 note=69 velocity=0 time=0.234375
note_on channel=3 note=71 velocity=56 time=0
note_on channel=2 note=77 velocity=0 time=0.234375
note_on channel=2 note=76 velocity=62 time=0
note_on channel=3 note=71 velocity=0 time=0
note_on channel=3 note=68 velocity=58 time=0
note_on channel=3 note=68 velocity=0 time=0.234375
note_on channel=3 note=66 velocity=55 time=0
note_on channel=4 note=59 velocity=0 time=0
note_on channel=4 note=60 velocity=60 time=0
note_on channel=2 note=76 velocity=0 time=0.234375
note_on channel=2 note=74 velocity=60 time=0
note_on channel=3 note=66 velocity=0 time=0
note_on channel=3 note=68 velocity=55 time=0
note_on channel=4 note=60 velocity=0 time=0
note_on channel=4 note=59 velocity=59 time=0
note_on channel=5 note=50 velocity=0 time=0
note_on channel=5 note=52 velocity=57 time=0
note_on channel=3 note=68 velocity=0 time=0.234375
note_on channel=3 note=69 velocity=55 time=0
note_on channel=4 note=59 velocity=0 time=0
note_on channel=4 note=57 velocity=57 time=0
note_on channel=3 note=69 velocity=0 time=0.234375
note_on channel=3 note=71 velocity=59 time=0
note_on channel=4 note=57 velocity=0 time=0
note_on channel=4 note=56 velocity=56 time=0
note_on channel=5 note=52 velocity=0 time=0
note_on channel=5 note=53 velocity=60 time=0
note_on channel=4 note=56 velocity=0 time=0.4296875
note_on channel=2 note=74 velocity=0 time=0
note_on channel=2 note=72 velocity=58 time=0
note_on channel=3 note=71 velocity=0 time=0
note_on channel=4 note=57 velocity=59 time=0
note_on channel=5 note=53 velocity=0 time=0
note_on channel=5 note=52 velocity=55 time=0
note_on channel=2 note=72 velocity=0 time=0.24818
note_on channel=2 note=71 velocity=58 time=0
note_on channel=5 note=52 velocity=0 time=0
note_on channel=5 note=50 velocity=55 time=0
note_on channel=2 note=71 velocity=0 time=0
note_on channel=2 note=71 velocity=60 time=0
note_on channel=5 note=50 velocity=0 time=0
note_on channel=5 note=52 velocity=58 time=0
note_on channel=2 note=71 velocity=0 time=0.0987015
note_on channel=2 note=72 velocity=55 time=0
note_on channel=2 note=72 velocity=0 time=0.0987015
note_on channel=2 note=71 velocity=60 time=0
note_on channel=4 note=57 velocity=0 time=0.329005
note_on channel=4 note=56 velocity=57 time=0
note_on channel=2 note=71 velocity=0 time=0.263204
note_on channel=2 note=69 velocity=57 time=0
note_on channel=2 note=69 velocity=0 time=0
note_on channel=2 note=69 velocity=60 time=0
note_on channel=4 note=56 velocity=0 time=0
note_on channel=4 note=57 velocity=60 time=0
note_on channel=5 note=52 velocity=0 time=0
note_on channel=5 note=45 velocity=61 time=0
control_change channel=3 control=7 value=127 time=0.480692
note_on channel=3 note=60 velocity=53 time=0
note_on channel=2 note=69 velocity=0 time=0.480692
note_on channel=3 note=60 velocity=0 time=0
note_on channel=3 note=62 velocity=54 time=0
note_on channel=4 note=57 velocity=0 time=0
note_on channel=5 note=45 velocity=0 time=0
note_on channel=3 note=62 velocity=0 time=0
note_on channel=3 note=64 velocity=55 time=0
note_on channel=4 note=55 velocity=52 time=0
note_on channel=3 note=64 velocity=0 time=0
note_on channel=3 note=65 velocity=60 time=0
note_on channel=4 note=55 velocity=0 time=0
note_on channel=4 note=57 velocity=54 time=0
note_on channel=4 note=57 velocity=0 time=0.48
note_on channel=4 note=59 velocity=56 time=0
note_on channel=3 note=65 velocity=0 time=0
note_on channel=3 note=67 velocity=58 time=0
note_on channel=3 note=67 velocity=0 time=0.113636375
note_on channel=3 note=65 velocity=58 time=0
note_on channel=3 note=65 velocity=0 time=0
note_on channel=3 note=64 velocity=58 time=0
note_on channel=4 note=59 velocity=0 time=0
note_on channel=4 note=60 velocity=60 time=0
note_on channel=3 note=64 velocity=0 time=0.436507958333
note_on channel=3 note=69 velocity=60 time=0.0396825416667
note_on channel=4 note=60 velocity=0 time=0.23809525
note_on channel=4 note=62 velocity=57 time=0
note_on channel=4 note=62 velocity=0 time=0.119047625
note_on channel=4 note=60 velocity=57 time=0
note_on channel=3 note=69 velocity=0 time=0
note_on channel=3 note=62 velocity=56 time=0
note_on channel=4 note=60 velocity=0 time=0
note_on channel=4 note=59 velocity=57 time=0
note_on channel=3 note=62 velocity=0 time=0.447154583333
note_on channel=4 note=59 velocity=0 time=0
note_on channel=3 note=67 velocity=60 time=0
note_on channel=4 note=64 velocity=60 time=0
control_change channel=5 control=7 value=120 time=0
note_on channel=5 note=43 velocity=52 time=0
note_on channel=4 note=64 velocity=0 time=0.4761905
note_on channel=4 note=57 velocity=55 time=0
note_on channel=5 note=43 velocity=0 time=0
note_on channel=5 note=45 velocity=53 time=0
note_on channel=3 note=67 velocity=0 time=0
note_on channel=3 note=69 velocity=57 time=0
note_on channel=4 note=57 velocity=0 time=0.192307708333
note_on channel=3 note=69 velocity=0 time=0.0384615416667
note_on channel=3 note=67 velocity=57 time=0
note_on channel=4 note=62 velocity=60 time=0
note_on channel=5 note=45 velocity=0 time=0
note_on channel=5 note=47 velocity=55 time=0
note_on channel=3 note=67 velocity=0 time=0
note_on channel=3 note=65 velocity=57 time=0
note_on channel=3 note=65 velocity=0 time=0
note_on channel=3 note=64 velocity=57 time=0
note_on channel=5 note=47 velocity=0 time=0
note_on channel=5 note=48 velocity=60 time=0
note_on channel=3 note=64 velocity=0 time=0.436507958333
control_change channel=2 control=7 value=127 time=0.0396825416667
note_on channel=2 note=67 velocity=53 time=0
control_change channel=3 control=7 value=110 time=0
note_on channel=3 note=64 velocity=56 time=0
note_on channel=4 note=62 velocity=0 time=0
control_change channel=4 control=7 value=100 time=0
note_on channel=4 note=55 velocity=57 time=0
note_on channel=5 note=48 velocity=0 time=0.23809525
note_on channel=5 note=50 velocity=57 time=0
note_on channel=5 note=50 velocity=0 time=0.119047625
note_on channel=5 note=48 velocity=57 time=0
note_on channel=2 note=67 velocity=0 time=0.119047625
note_on channel=2 note=69 velocity=54 time=0
note_on channel=3 note=64 velocity=0 time=0
note_on channel=3 note=66 velocity=56 time=0
note_on channel=4 note=55 velocity=0 time=0
note_on channel=4 note=62 velocity=60 time=0
note_on channel=5 note=48 velocity=0 time=0
note_on channel=5 note=47 velocity=57 time=0
note_on channel=5 note=47 velocity=0 time=0.436507958333
note_on channel=2 note=69 velocity=0 time=0
note_on channel=2 note=71 velocity=55 time=0
note_on channel=3 note=66 velocity=0 time=0
note_on channel=3 note=67 velocity=60 time=0
note_on channel=5 note=52 velocity=60 time=0
note_on channel=2 note=71 velocity=0 time=0
note_on channel=2 note=72 velocity=60 time=0
note_on channel=4 note=62 velocity=0 time=0
note_on channel=4 note=60 velocity=57 time=0
note_on channel=5 note=52 velocity=0 time=0
note_on channel=5 note=45 velocity=56 time=0
note_on channel=3 note=67 velocity=0 time=0.357142875
note_on channel=4 note=60 velocity=0 time=0.0793650833333
note_on channel=5 note=45 velocity=0 time=0
note_on channel=3 note=66 velocity=58 time=0.0396825416667
note_on channel=4 note=57 velocity=57 time=0
note_on channel=5 note=50 velocity=60 time=0
note_on channel=2 note=72 velocity=0 time=0
note_on channel=2 note=74 velocity=57 time=0
note_on channel=2 note=74 velocity=0 time=0.113636375
note_on channel=2 note=72 velocity=57 time=0
note_on channel=2 note=72 velocity=0 time=0
note_on channel=2 note=71 velocity=57 time=0
note_on channel=3 note=66 velocity=0 time=0
note_on channel=3 note=68 velocity=58 time=0
note_on channel=4 note=57 velocity=0 time=0
note_on channel=4 note=64 velocity=60 time=0
note_on channel=5 note=50 velocity=0 time=0.2439025
note_on channel=5 note=52 velocity=61 time=0
note_on channel=2 note=71 velocity=0 time=0.203252083333
note_on channel=2 note=72 velocity=53 time=0
note_on channel=3 note=68 velocity=0 time=0
note_on channel=3 note=69 velocity=61 time=0
note_on channel=5 note=52 velocity=0 time=0
note_on channel=5 note=50 velocity=60 time=0
note_on channel=5 note=50 velocity=0 time=0.23809525
note_on channel=5 note=48 velocity=59 time=0
note_on channel=2 note=72 velocity=0 time=0.23809525
note_on channel=2 note=74 velocity=56 time=0
note_on channel=4 note=64 velocity=0 time=0
note_on channel=4 note=62 velocity=57 time=0
note_on channel=5 note=48 velocity=0 time=0
note_on channel=5 note=47 velocity=58 time=0
note_on channel=5 note=47 velocity=0 time=0.436507958333
note_on channel=2 note=74 velocity=0 time=0.0396825416667
note_on channel=2 note=76 velocity=59 time=0
note_on channel=3 note=69 velocity=0 time=0
note_on channel=3 note=67 velocity=57 time=0
note_on channel=4 note=62 velocity=0 time=0
note_on channel=5 note=46 velocity=57 time=0
note_on channel=2 note=76 velocity=0 time=0
note_on channel=2 note=77 velocity=64 time=0
note_on channel=3 note=67 velocity=0 time=0
note_on channel=3 note=69 velocity=57 time=0
note_on channel=5 note=46 velocity=0 time=0
note_on channel=5 note=45 velocity=57 time=0
note_on channel=3 note=69 velocity=0 time=0.4761905
note_on channel=3 note=71 velocity=57 time=0
note_on channel=5 note=45 velocity=0 time=0
note_on channel=5 note=43 velocity=56 time=0
note_on channel=2 note=77 velocity=0 time=0
note_on channel=2 note=79 velocity=60 time=0
note_on channel=2 note=79 velocity=0 time=0.114503875
note_on channel=2 note=77 velocity=60 time=0
note_on channel=2 note=77 velocity=0 time=0
note_on channel=2 note=76 velocity=60 time=0
note_on channel=3 note=71 velocity=0 time=0
note_on channel=3 note=72 velocity=60 time=0
note_on channel=5 note=43 velocity=0 time=0
note_on channel=5 note=45 velocity=56 time=0
note_on channel=5 note=45 velocity=0 time=0.36585375
note_on channel=2 note=76 velocity=0 time=0.0813008333333
note_on channel=2 note=81 velocity=68 time=0
note_on channel=4 note=57 velocity=51 time=0
note_on channel=5 note=54 velocity=60 time=0
note_on channel=3 note=72 velocity=0 time=0.23809525
note_on channel=3 note=74 velocity=58 time=0
note_on channel=3 note=74 velocity=0 time=0.119047625
note_on channel=3 note=72 velocity=58 time=0
control_change channel=5 control=7 value=100 time=0.117063497917
note_on channel=2 note=81 velocity=0 time=0.00198412708333
control_change channel=2 control=7 value=110 time=0
note_on channel=2 note=74 velocity=60 time=0
note_on channel=3 note=72 velocity=0 time=0
note_on channel=3 note=71 velocity=58 time=0
note_on channel=4 note=57 velocity=0 time=0
note_on channel=4 note=59 velocity=53 time=0
note_on channel=5 note=54 velocity=0 time=0
note_on channel=5 note=55 velocity=60 time=0
note_on channel=2 note=74 velocity=0 time=0.436507958333
note_on channel=3 note=71 velocity=0 time=0
note_on channel=2 note=79 velocity=66 time=0.0396825416667
note_on channel=3 note=76 velocity=60 time=0
note_on channel=4 note=59 velocity=0 time=0
note_on channel=4 note=61 velocity=55 time=0
note_on channel=5 note=55 velocity=0 time=0
note_on channel=5 note=52 velocity=57 time=0
note_on channel=3 note=76 velocity=0 time=0.4761905
note_on channel=3 note=69 velocity=58 time=0
note_on channel=4 note=61 velocity=0 time=0
note_on channel=4 note=62 velocity=60 time=0
note_on channel=5 note=52 velocity=0 time=0
note_on channel=5 note=50 velocity=57 time=0
note_on channel=2 note=79 velocity=0 time=0.23809525
note_on channel=2 note=81 velocity=66 time=0
note_on channel=3 note=69 velocity=0 time=0.198412708333
note_on channel=2 note=81 velocity=0 time=0
note_on channel=2 note=79 velocity=64 time=0
note_on channel=3 note=74 velocity=60 time=0
note_on channel=2 note=79 velocity=0 time=0.22727275
note_on channel=2 note=77 velocity=63 time=0
note_on channel=4 note=62 velocity=0 time=0
note_on channel=4 note=64 velocity=58 time=0
note_on channel=4 note=64 velocity=0 time=0.113636375
note_on channel=4 note=62 velocity=58 time=0
note_on channel=5 note=50 velocity=0 time=0.0757575833333
note_on channel=2 note=77 velocity=0 time=0
note_on channel=2 note=76 velocity=61 time=0
note_on channel=4 note=62 velocity=0 time=0
note_on channel=4 note=60 velocity=58 time=0
control_change channel=5 control=7 value=120 time=0
note_on channel=5 note=52 velocity=56 time=0
note_on channel=3 note=74 velocity=0 time=0.23809525
note_on channel=3 note=76 velocity=57 time=0
note_on channel=2 note=76 velocity=0 time=0.198412708333
note_on channel=4 note=60 velocity=0 time=0
note_on channel=2 note=81 velocity=67 time=0.0396825416667
note_on channel=3 note=76 velocity=0 time=0
note_on channel=3 note=74 velocity=56 time=0
note_on channel=4 note=65 velocity=60 time=0
note_on channel=5 note=52 velocity=0 time=0
note_on channel=5 note=53 velocity=56 time=0
note_on channel=3 note=74 velocity=0 time=0.23809525
note_on channel=3 note=72 velocity=55 time=0
note_on channel=2 note=81 velocity=0 time=0
note_on channel=2 note=74 velocity=60 time=0
note_on channel=3 note=72 velocity=0 time=0
note_on channel=3 note=71 velocity=54 time=0
note_on channel=4 note=65 velocity=0 time=0
note_on channel=4 note=59 velocity=54 time=0
note_on channel=5 note=53 velocity=0 time=0
note_on channel=5 note=55 velocity=60 time=0
note_on channel=2 note=74 velocity=0 time=0.450819875
note_on channel=3 note=71 velocity=0 time=0
note_on channel=4 note=59 velocity=0 time=0
note_on channel=2 note=82 velocity=67 time=0
note_on channel=3 note=79 velocity=65 time=0
note_on channel=4 note=64 velocity=60 time=0
note_on channel=5 note=55 velocity=0 time=0.24590175
note_on channel=5 note=57 velocity=57 time=0
note_on channel=5 note=57 velocity=0 time=0.122950875
note_on channel=5 note=55 velocity=57 time=0
note_on channel=2 note=82 velocity=0 time=0
note_on channel=2 note=81 velocity=67 time=0
note_on channel=3 note=79 velocity=0 time=0
note_on channel=3 note=73 velocity=58 time=0
note_on channel=5 note=55 velocity=0 time=0
note_on channel=5 note=53 velocity=57 time=0
note_on channel=4 note=64 velocity=0 time=0.23809525
note_on channel=4 note=65 velocity=61 time=0
note_on channel=5 note=53 velocity=0 time=0.198412708333
note_on channel=2 note=81 velocity=0 time=0
note_on channel=2 note=79 velocity=64 time=0
note_on channel=3 note=73 velocity=0 time=0
note_on channel=3 note=74 velocity=58 time=0
note_on channel=4 note=65 velocity=0 time=0
note_on channel=4 note=64 velocity=59 time=0
note_on channel=5 note=58 velocity=60 time=0
note_on channel=2 note=79 velocity=0 time=0.22900775
note_on channel=2 note=77 velocity=61 time=0
note_on channel=4 note=64 velocity=0 time=0
note_on channel=4 note=62 velocity=58 time=0
note_on channel=2 note=77 velocity=0 time=0
note_on channel=2 note=79 velocity=64 time=0
note_on channel=3 note=74 velocity=0 time=0
note_on channel=3 note=76 velocity=60 time=0
note_on channel=4 note=62 velocity=0 time=0
note_on channel=4 note=61 velocity=56 time=0
note_on channel=5 note=58 velocity=0 time=0
note_on channel=5 note=52 velocity=55 time=0
note_on channel=2 note=79 velocity=0 time=0.23809525
note_on channel=2 note=77 velocity=61 time=0
note_on channel=3 note=76 velocity=0 time=0.198412708333
note_on channel=5 note=52 velocity=0 time=0
note_on channel=2 note=77 velocity=0 time=0.0396825416667
note_on channel=2 note=79 velocity=64 time=0
note_on channel=3 note=73 velocity=56 time=0
note_on channel=4 note=61 velocity=0 time=0
note_on channel=5 note=57 velocity=60 time=0
note_on channel=2 note=79 velocity=0 time=0.23809525
note_on channel=2 note=76 velocity=60 time=0
note_on channel=2 note=76 velocity=0 time=0
note_on channel=2 note=77 velocity=64 time=0
note_on channel=3 note=73 velocity=0 time=0
note_on channel=3 note=74 velocity=56 time=0
note_on channel=2 note=77 velocity=0 time=0.23809525
note_on channel=2 note=79 velocity=60 time=0
note_on channel=5 note=57 velocity=0 time=0
note_on channel=5 note=58 velocity=58 time=0
note_on channel=2 note=79 velocity=0 time=0
note_on channel=2 note=79 velocity=64 time=0
note_on channel=3 note=74 velocity=0 time=0
note_on channel=3 note=76 velocity=56 time=0
note_on channel=5 note=58 velocity=0 time=0
note_on channel=5 note=57 velocity=58 time=0
note_on channel=2 note=79 velocity=0 time=0.0619835
note_on channel=2 note=81 velocity=55 time=0
note_on channel=2 note=81 velocity=0 time=0.0619835
note_on channel=2 note=79 velocity=55 time=0
note_on channel=2 note=79 velocity=0 time=0.0619835
note_on channel=2 note=77 velocity=60 time=0.0619835
note_on channel=5 note=57 velocity=0 time=0
note_on channel=5 note=55 velocity=57 time=0
note_on channel=2 note=77 velocity=0 time=0.123967
note_on channel=2 note=79 velocity=60 time=0
note_on channel=2 note=79 velocity=0 time=0
note_on channel=2 note=81 velocity=67 time=0
note_on channel=3 note=76 velocity=0 time=0
note_on channel=3 note=69 velocity=58 time=0
note_on channel=5 note=55 velocity=0 time=0
note_on channel=5 note=53 velocity=58 time=0
note_on channel=2 note=81 velocity=0 time=0.1785714375
note_on channel=2 note=73 velocity=60 time=0.0595238125
note_on channel=5 note=53 velocity=0 time=0
note_on channel=5 note=52 velocity=55 time=0
note_on channel=2 note=73 velocity=0 time=0.23809525
note_on channel=2 note=74 velocity=60 time=0
note_on channel=3 note=69 velocity=0 time=0
control_change channel=4 control=7 value=120 time=0
note_on channel=4 note=57 velocity=53 time=0
note_on channel=5 note=52 velocity=0 time=0
control_change channel=5 control=7 value=100 time=0
note_on channel=5 note=53 velocity=58 time=0
note_on channel=5 note=53 velocity=0 time=0.1785714375
note_on channel=2 note=74 velocity=0 time=0
note_on channel=2 note=79 velocity=60 time=0
note_on channel=5 note=50 velocity=55 time=0
note_on channel=2 note=79 velocity=0 time=0.247934
note_on channel=2 note=76 velocity=64 time=0
note_on channel=4 note=57 velocity=0 time=0
note_on channel=4 note=59 velocity=54 time=0
note_on channel=5 note=50 velocity=0 time=0
note_on channel=5 note=55 velocity=59 time=0
note_on channel=2 note=76 velocity=0 time=0.09297525
note_on channel=2 note=77 velocity=55 time=0
note_on channel=2 note=77 velocity=0 time=0.09297525
note_on channel=2 note=76 velocity=60 time=0
note_on channel=3 note=64 velocity=52 time=0.3099175
note_on channel=4 note=59 velocity=0 time=0
note_on channel=4 note=61 velocity=55 time=0
note_on channel=5 note=55 velocity=0 time=0
note_on channel=5 note=57 velocity=59 time=0
note_on channel=2 note=76 velocity=0 time=0.247934
note_on channel=2 note=74 velocity=60 time=0
note_on channel=2 note=74 velocity=0 time=0.247934
note_on channel=2 note=74 velocity=61 time=0
note_on channel=3 note=64 velocity=0 time=0
note_on channel=3 note=66 velocity=53 time=0
note_on channel=4 note=61 velocity=0 time=0
note_on channel=4 note=62 velocity=60 time=0
note_on channel=5 note=57 velocity=0 time=0
note_on channel=5 note=50 velocity=56 time=0
note_on channel=2 note=74 velocity=0 time=0.495868
note_on channel=3 note=66 velocity=0 time=0
note_on channel=3 note=67 velocity=55 time=0
note_on channel=4 note=62 velocity=0 time=0.247934
note_on channel=4 note=64 velocity=57 time=0
note_on channel=4 note=64 velocity=0 time=0.123967
note_on channel=4 note=62 velocity=57 time=0
note_on channel=3 note=67 velocity=0 time=0
note_on channel=3 note=69 velocity=60 time=0
note_on channel=4 note=62 velocity=0 time=0
note_on channel=4 note=60 velocity=57 time=0
note_on channel=4 note=60 velocity=0 time=0.44
note_on channel=4 note=66 velocity=60 time=0.04
note_on channel=3 note=69 velocity=0 time=0.24
note_on channel=3 note=71 velocity=58 time=0
note_on channel=3 note=71 velocity=0 time=0.12
note_on channel=3 note=69 velocity=58 time=0
note_on channel=3 note=69 velocity=0 time=0
note_on channel=3 note=67 velocity=58 time=0
note_on channel=4 note=66 velocity=0 time=0
note_on channel=4 note=59 velocity=54 time=0
note_on channel=5 note=50 velocity=0 time=0.24
note_on channel=5 note=52 velocity=57 time=0
note_on channel=3 note=67 velocity=0 time=0.2
note_on channel=4 note=59 velocity=0 time=0
note_on channel=3 note=72 velocity=60 time=0.04
note_on channel=4 note=64 velocity=60 time=0
note_on channel=5 note=52 velocity=0 time=0
note_on channel=5 note=50 velocity=57 time=0
note_on channel=5 note=50 velocity=0 time=0.24
note_on channel=5 note=48 velocity=56 time=0
note_on channel=3 note=72 velocity=0 time=0.24
note_on channel=3 note=66 velocity=55 time=0
note_on channel=5 note=48 velocity=0 time=0
note_on channel=5 note=47 velocity=56 time=0
note_on channel=3 note=66 velocity=0 time=0.236
note_on channel=4 note=64 velocity=0 time=0
note_on channel=4 note=66 velocity=63 time=0
note_on channel=5 note=47 velocity=0 time=0
note_on channel=5 note=45 velocity=55 time=0
note_on channel=3 note=71 velocity=60 time=0
note_on channel=4 note=66 velocity=0 time=0
note_on channel=4 note=64 velocity=63 time=0
note_on channel=5 note=45 velocity=0 time=0
note_on channel=5 note=43 velocity=55 time=0
note_on channel=4 note=64 velocity=0 time=0.2419355
note_on channel=4 note=62 velocity=62 time=0
note_on channel=5 note=43 velocity=0 time=0
note_on channel=5 note=42 velocity=54 time=0
note_on channel=4 note=62 velocity=0 time=0.2419355
note_on channel=4 note=60 velocity=60 time=0
note_on channel=5 note=42 velocity=0 time=0
note_on channel=5 note=40 velocity=54 time=0
note_on channel=3 note=71 velocity=0 time=0.2419355
note_on channel=3 note=72 velocity=57 time=0
note_on channel=5 note=40 velocity=0 time=0.201612916667
control_change channel=5 control=7 value=120 time=0.0383064541667
note_on channel=3 note=72 velocity=0 time=0
note_on channel=3 note=71 velocity=57 time=0
note_on channel=5 note=52 velocity=52 time=0
note_on channel=3 note=71 velocity=0 time=0.234375
note_on channel=3 note=69 velocity=56 time=0
note_on channel=3 note=69 velocity=0 time=0
note_on channel=3 note=67 velocity=56 time=0
note_on channel=5 note=52 velocity=0 time=0
note_on channel=5 note=54 velocity=54 time=0
note_on channel=3 note=67 velocity=0 time=0.24
note_on channel=3 note=66 velocity=55 time=0
note_on channel=2 note=67 velocity=51 time=0.24
note_on channel=3 note=66 velocity=0 time=0
note_on channel=3 note=64 velocity=54 time=0
note_on channel=5 note=54 velocity=0 time=0
note_on channel=5 note=55 velocity=56 time=0
note_on channel=3 note=64 velocity=0 time=0.24
note_on channel=3 note=62 velocity=54 time=0
note_on channel=2 note=67 velocity=0 time=0.24
note_on channel=2 note=69 velocity=53 time=0
note_on channel=3 note=62 velocity=0 time=0
note_on channel=3 note=64 velocity=57 time=0
note_on channel=4 note=60 velocity=0 time=0.24
control_change channel=4 control=7 value=100 time=0
note_on channel=4 note=62 velocity=60 time=0
note_on channel=2 note=69 velocity=0 time=0.24
note_on channel=2 note=71 velocity=55 time=0
note_on channel=4 note=62 velocity=0 time=0
note_on channel=4 note=60 velocity=59 time=0
note_on channel=5 note=55 velocity=0 time=0
note_on channel=5 note=57 velocity=60 time=0
note_on channel=4 note=60 velocity=0 time=0
note_on channel=4 note=59 velocity=58 time=0
note_on channel=5 note=57 velocity=0 time=0
note_on channel=5 note=55 velocity=58 time=0
note_on channel=2 note=71 velocity=0 time=0
note_on channel=2 note=72 velocity=60 time=0
note_on channel=3 note=64 velocity=0 time=0
note_on channel=3 note=62 velocity=58 time=0
note_on channel=4 note=59 velocity=0 time=0
note_on channel=4 note=57 velocity=57 time=0
note_on channel=5 note=55 velocity=0 time=0
note_on channel=5 note=54 velocity=60 time=0
note_on channel=4 note=57 velocity=0 time=0.24
note_on channel=4 note=55 velocity=56 time=0
note_on channel=5 note=54 velocity=0 time=0.2
note_on channel=4 note=55 velocity=0 time=0.04
note_on channel=4 note=57 velocity=58 time=0
note_on channel=5 note=50 velocity=57 time=0
note_on channel=4 note=57 velocity=0 time=0.18
note_on channel=2 note=72 velocity=0 time=0.06
note_on channel=2 note=74 velocity=58 time=0
note_on channel=4 note=54 velocity=54 time=0
note_on channel=2 note=74 velocity=0 time=0.12
note_on channel=2 note=72 velocity=58 time=0
note_on channel=2 note=72 velocity=0 time=0
note_on channel=2 note=71 velocity=58 time=0
note_on channel=4 note=54 velocity=0 time=0
note_on channel=4 note=55 velocity=54 time=0
note_on channel=5 note=50 velocity=0 time=0
note_on channel=5 note=55 velocity=59 time=0
note_on channel=3 note=62 velocity=0 time=0.25210075
note_on channel=3 note=69 velocity=57 time=0
note_on channel=2 note=71 velocity=0 time=0.210083958333
note_on channel=4 note=55 velocity=0 time=0
note_on channel=2 note=76 velocity=60 time=0
note_on channel=3 note=69 velocity=0 time=0
note_on channel=3 note=67 velocity=57 time=0
control_change channel=4 control=7 value=120 time=0
note_on channel=4 note=59 velocity=57 time=0
note_on channel=3 note=67 velocity=0 time=0.23809525
note_on channel=3 note=65 velocity=56 time=0
note_on channel=2 note=76 velocity=0 time=0.23809525
note_on channel=2 note=69 velocity=57 time=0
note_on channel=3 note=65 velocity=0 time=0
note_on channel=3 note=64 velocity=56 time=0
note_on channel=4 note=59 velocity=0 time=0
note_on channel=4 note=60 velocity=60 time=0
note_on channel=3 note=64 velocity=0 time=0.23809525
note_on channel=3 note=67 velocity=60 time=0
note_on channel=2 note=69 velocity=0 time=0.198412708333
note_on channel=2 note=74 velocity=60 time=0.0396825416667
note_on channel=3 note=67 velocity=0 time=0
note_on channel=3 note=65 velocity=56 time=0
note_on channel=4 note=60 velocity=0 time=0
note_on channel=4 note=62 velocity=63 time=0
note_on channel=3 note=65 velocity=0 time=0.23809525
note_on channel=3 note=69 velocity=56 time=0
note_on channel=3 note=69 velocity=0 time=0.23809525
note_on channel=3 note=67 velocity=58 time=0
note_on channel=4 note=62 velocity=0 time=0
note_on channel=4 note=64 velocity=66 time=0
note_on channel=2 note=74 velocity=0 time=0.23809525
note_on channel=2 note=76 velocity=60 time=0
note_on channel=2 note=76 velocity=0 time=0
note_on channel=2 note=74 velocity=57 time=0
note_on channel=2 note=74 velocity=0 time=0.22900775
note_on channel=2 note=72 velocity=56 time=0
note_on channel=4 note=64 velocity=0 time=0
note_on channel=4 note=65 velocity=60 time=0
note_on channel=4 note=65 velocity=0 time=0.114503875
note_on channel=4 note=64 velocity=60 time=0
note_on channel=2 note=72 velocity=0 time=0
note_on channel=2 note=71 velocity=55 time=0
note_on channel=4 note=64 velocity=0 time=0
note_on channel=4 note=62 velocity=60 time=0
note_on channel=2 note=71 velocity=0 time=0.23809525
note_on channel=2 note=72 velocity=55 time=0
note_on channel=3 note=67 velocity=0 time=0
note_on channel=3 note=69 velocity=56 time=0
note_on channel=4 note=62 velocity=0 time=0.198412708333
note_on channel=2 note=72 velocity=0 time=0
note_on channel=2 note=74 velocity=57 time=0
note_on channel=3 note=69 velocity=0 time=0
note_on channel=3 note=70 velocity=56 time=0
note_on channel=4 note=67 velocity=65 time=0
note_on channel=2 note=74 velocity=0 time=0.24590175
note_on channel=2 note=76 velocity=59 time=0
note_on channel=2 note=76 velocity=0 time=0.24590175
note_on channel=2 note=77 velocity=61 time=0
note_on channel=3 note=70 velocity=0 time=0
note_on channel=3 note=72 velocity=54 time=0
note_on channel=4 note=67 velocity=0 time=0
note_on channel=4 note=60 velocity=58 time=0
note_on channel=5 note=55 velocity=0 time=0
control_change channel=5 control=7 value=100 time=0
note_on channel=5 note=57 velocity=52 time=0
note_on channel=2 note=77 velocity=0 time=0.24590175
note_on channel=2 note=79 velocity=61 time=0
note_on channel=4 note=60 velocity=0 time=0.204918125
note_on channel=2 note=79 velocity=0 time=0.040983625
note_on channel=2 note=81 velocity=61 time=0
note_on channel=4 note=65 velocity=66 time=0
note_on channel=2 note=81 velocity=0 time=0.24590175
note_on channel=2 note=79 velocity=60 time=0
note_on channel=2 note=79 velocity=0 time=0.24590175
note_on channel=2 note=77 velocity=60 time=0
note_on channel=3 note=72 velocity=0 time=0
note_on channel=3 note=74 velocity=60 time=0
note_on channel=5 note=57 velocity=0 time=0
note_on channel=5 note=59 velocity=57 time=0
note_on channel=2 note=77 velocity=0 time=0.24590175
note_on channel=2 note=76 velocity=59 time=0
note_on channel=4 note=65 velocity=0 time=0
note_on channel=4 note=67 velocity=62 time=0
note_on channel=3 note=74 velocity=0 time=0.204918125
note_on channel=2 note=76 velocity=0 time=0
note_on channel=2 note=74 velocity=59 time=0
note_on channel=3 note=67 velocity=57 time=0
note_on channel=4 note=67 velocity=0 time=0
note_on channel=4 note=65 velocity=60 time=0
note_on channel=5 note=59 velocity=0 time=0
note_on channel=5 note=60 velocity=57 time=0
note_on channel=2 note=74 velocity=0 time=0.24
note_on channel=2 note=72 velocity=58 time=0
note_on channel=4 note=65 velocity=0 time=0
note_on channel=4 note=64 velocity=58 time=0
note_on channel=2 note=72 velocity=0 time=0
note_on channel=2 note=71 velocity=58 time=0
note_on channel=3 note=67 velocity=0 time=0
note_on channel=3 note=67 velocity=60 time=0
note_on channel=4 note=64 velocity=0 time=0
note_on channel=4 note=62 velocity=57 time=0
note_on channel=5 note=60 velocity=0 time=0
note_on channel=5 note=53 velocity=58 time=0
note_on channel=5 note=53 velocity=0 time=0.182926875
note_on channel=5 note=57 velocity=60 time=0.060975625
note_on channel=5 note=57 velocity=0 time=0.2439025
note_on channel=5 note=55 velocity=59 time=0
note_on channel=5 note=55 velocity=0 time=0.2439025
note_on channel=5 note=53 velocity=58 time=0
note_on channel=2 note=71 velocity=0 time=0.2439025
note_on channel=2 note=72 velocity=57 time=0
note_on channel=4 note=62 velocity=0 time=0
control_change channel=4 control=7 value=100 time=0
note_on channel=4 note=64 velocity=60 time=0
note_on channel=5 note=53 velocity=0 time=0
note_on channel=5 note=52 velocity=57 time=0
note_on channel=5 note=52 velocity=0 time=0.2439025
note_on channel=5 note=50 velocity=56 time=0
note_on channel=2 note=72 velocity=0 time=0.2439025
note_on channel=2 note=74 velocity=57 time=0
note_on channel=3 note=67 velocity=0 time=0
note_on channel=3 note=65 velocity=57 time=0
note_on channel=4 note=64 velocity=0 time=0
note_on channel=4 note=62 velocity=60 time=0
note_on channel=5 note=50 velocity=0 time=0
note_on channel=5 note=48 velocity=56 time=0
note_on channel=5 note=48 velocity=0 time=0.2439025
note_on channel=5 note=47 velocity=55 time=0
note_on channel=2 note=74 velocity=0 time=0
note_on channel=2 note=67 velocity=58 time=0
note_on channel=5 note=47 velocity=0 time=0
note_on channel=5 note=48 velocity=51 time=0
note_on channel=5 note=48 velocity=0 time=0.2522705
note_on channel=5 note=50 velocity=53 time=0
note_on channel=2 note=67 velocity=0 time=0.210225416667
note_on channel=2 note=72 velocity=60 time=0
note_on channel=3 note=65 velocity=0 time=0
note_on channel=3 note=64 velocity=57 time=0
note_on channel=4 note=62 velocity=0 time=0
note_on channel=4 note=55 velocity=58 time=0
note_on channel=5 note=50 velocity=0 time=0
note_on channel=5 note=52 velocity=56 time=0
note_on channel=5 note=52 velocity=0 time=0.28005975
note_on channel=5 note=53 velocity=58 time=0
note_on channel=3 note=64 velocity=0 time=0.28005975
note_on channel=3 note=62 velocity=57 time=0
note_on channel=4 note=55 velocity=0 time=0
note_on channel=4 note=55 velocity=61 time=0
note_on channel=5 note=53 velocity=0 time=0
note_on channel=2 note=72 velocity=0 time=0.5601195
note_on channel=2 note=71 velocity=57 time=0
note_on channel=5 note=43 velocity=57 time=0
note_on channel=2 note=71 velocity=0 time=0
note_on channel=2 note=72 velocity=60 time=0
note_on channel=3 note=62 velocity=0 time=0
note_on channel=3 note=64 velocity=56 time=0
note_on channel=5 note=43 velocity=0 time=0
note_on channel=5 note=48 velocity=60 time=0
note_on channel=3 note=64 velocity=0 time=0.482540666667
note_on channel=4 note=55 velocity=0 time=0
note_on channel=3 note=69 velocity=68 time=0.0438673333333
control_change channel=4 control=7 value=120 time=0
note_on channel=4 note=48 velocity=51 time=0
note_on channel=2 note=72 velocity=0 time=0.526408
note_on channel=2 note=71 velocity=67 time=0
note_on channel=4 note=48 velocity=0 time=0
note_on channel=4 note=50 velocity=53 time=0
note_on channel=2 note=71 velocity=0 time=0.526408
note_on channel=2 note=70 velocity=67 time=0
note_on channel=3 note=69 velocity=0 time=0
note_on channel=3 note=67 velocity=56 time=0
note_on channel=4 note=50 velocity=0 time=0
note_on channel=4 note=52 velocity=55 time=0
note_on channel=2 note=70 velocity=0 time=0.526408
note_on channel=2 note=69 velocity=66 time=0
note_on channel=4 note=52 velocity=0 time=0
note_on channel=4 note=53 velocity=60 time=0
note_on channel=2 note=69 velocity=0 time=0
note_on channel=2 note=74 velocity=72 time=0
note_on channel=3 note=67 velocity=0 time=0
note_on channel=3 note=65 velocity=56 time=0
note_on channel=4 note=53 velocity=0 time=0
note_on channel=4 note=55 velocity=56 time=0
note_on channel=4 note=55 velocity=0 time=0.140186875
note_on channel=4 note=53 velocity=56 time=0
note_on channel=3 note=65 velocity=0 time=0
note_on channel=3 note=67 velocity=57 time=0
note_on channel=4 note=53 velocity=0 time=0
note_on channel=4 note=52 velocity=57 time=0
note_on channel=4 note=52 velocity=0 time=0.482456333333
note_on channel=2 note=74 velocity=0 time=0.0438596666667
control_change channel=2 control=7 value=127 time=0
note_on channel=2 note=72 velocity=67 time=0
note_on channel=3 note=67 velocity=0 time=0
note_on channel=3 note=69 velocity=57 time=0
control_change channel=4 control=7 value=100 time=0
note_on channel=4 note=57 velocity=60 time=0
note_on channel=2 note=72 velocity=0 time=0.526316
note_on channel=2 note=74 velocity=67 time=0
note_on channel=3 note=69 velocity=0 time=0
note_on channel=3 note=70 velocity=60 time=0
note_on channel=4 note=57 velocity=0 time=0
note_on channel=4 note=50 velocity=55 time=0
note_on channel=4 note=50 velocity=0 time=0.482456333333
note_on channel=2 note=74 velocity=0 time=0
note_on channel=2 note=76 velocity=70 time=0
note_on channel=4 note=55 velocity=60 time=0
note_on channel=3 note=70 velocity=0 time=0
note_on channel=3 note=72 velocity=57 time=0
note_on channel=3 note=72 velocity=0 time=0.138888875
note_on channel=3 note=70 velocity=57 time=0
note_on channel=2 note=76 velocity=0 time=0
note_on channel=2 note=77 velocity=74 time=0
note_on channel=3 note=70 velocity=0 time=0
note_on channel=3 note=69 velocity=57 time=0
note_on channel=4 note=55 velocity=0 time=0.263158
note_on channel=4 note=57 velocity=58 time=0
note_on channel=3 note=69 velocity=0 time=0.219298333333
note_on channel=3 note=74 velocity=60 time=0.0438596666667
note_on channel=4 note=57 velocity=0 time=0
note_on channel=4 note=55 velocity=58 time=0
note_on channel=4 note=55 velocity=0 time=0.263158
note_on channel=4 note=53 velocity=57 time=0
note_on channel=3 note=74 velocity=0 time=0.263158
note_on channel=3 note=67 velocity=55 time=0
note_on channel=4 note=53 velocity=0 time=0
note_on channel=4 note=52 velocity=57 time=0
note_on channel=4 note=52 velocity=0 time=0.1973685
note_on channel=2 note=77 velocity=0 time=0
note_on channel=2 note=81 velocity=69 time=0
note_on channel=4 note=50 velocity=56 time=0
note_on channel=3 note=67 velocity=0 time=0.22714875
note_on channel=2 note=81 velocity=0 time=0.04542975
note_on channel=2 note=79 velocity=69 time=0
note_on channel=3 note=72 velocity=60 time=0
note_on channel=4 note=50 velocity=0 time=0
note_on channel=4 note=52 velocity=56 time=0
note_on channel=2 note=79 velocity=0 time=0.2725785
note_on channel=2 note=77 velocity=68 time=0
note_on channel=4 note=52 velocity=0 time=0
note_on channel=4 note=53 velocity=56 time=0
note_on channel=2 note=77 velocity=0 time=0.2725785
note_on channel=2 note=76 velocity=67 time=0
note_on channel=4 note=53 velocity=0 time=0
note_on channel=4 note=55 velocity=57 time=0
note_on channel=2 note=76 velocity=0 time=0.2725785
note_on channel=2 note=77 velocity=69 time=0
note_on channel=3 note=72 velocity=0 time=0
note_on channel=3 note=74 velocity=62 time=0
note_on channel=4 note=55 velocity=0 time=0
note_on channel=4 note=57 velocity=59 time=0
note_on channel=2 note=77 velocity=0 time=0.2725785
note_on channel=2 note=76 velocity=68 time=0
note_on channel=3 note=74 velocity=0 time=0
note_on channel=3 note=72 velocity=62 time=0
note_on channel=4 note=57 velocity=0 time=0
note_on channel=4 note=58 velocity=63 time=0
note_on channel=4 note=58 velocity=0 time=0.204433875
note_on channel=2 note=76 velocity=0 time=0.068144625
note_on channel=2 note=74 velocity=67 time=0
note_on channel=3 note=72 velocity=0 time=0
note_on channel=3 note=70 velocity=62 time=0
note_on channel=4 note=55 velocity=60 time=0
note_on channel=2 note=74 velocity=0 time=0.2725785
note_on channel=2 note=72 velocity=70 time=0
note_on channel=3 note=70 velocity=0 time=0
note_on channel=3 note=69 velocity=61 time=0
note_on channel=4 note=55 velocity=0 time=0
note_on channel=4 note=57 velocity=60 time=0
note_on channel=4 note=57 velocity=0 time=0.204433875
note_on channel=3 note=69 velocity=0 time=0.068144625
note_on channel=3 note=70 velocity=61 time=0
note_on channel=4 note=52 velocity=63 time=0
note_on channel=3 note=70 velocity=0 time=0.183351666667
note_on channel=3 note=69 velocity=61 time=0
note_on channel=4 note=52 velocity=0 time=0
note_on channel=4 note=53 velocity=55 time=0
note_on channel=3 note=69 velocity=0 time=0.0925069166667
note_on channel=3 note=67 velocity=60 time=0
note_on channel=4 note=53 velocity=0 time=0
note_on channel=4 note=55 velocity=57 time=0
note_on channel=3 note=67 velocity=0 time=0
note_on channel=3 note=65 velocity=60 time=0
note_on channel=4 note=55 velocity=0 time=0
note_on channel=4 note=57 velocity=59 time=0
note_on channel=3 note=65 velocity=0 time=0.28005975
note_on channel=3 note=67 velocity=60 time=0
note_on channel=4 note=57 velocity=0 time=0
note_on channel=4 note=59 velocity=60 time=0
note_on channel=3 note=67 velocity=0 time=0.188465833333
note_on channel=3 note=65 velocity=59 time=0
note_on channel=4 note=59 velocity=0 time=0
note_on channel=4 note=60 velocity=62 time=0
note_on channel=4 note=60 velocity=0 time=0.0237778125
note_on channel=3 note=65 velocity=0 time=0.0713334375
note_on channel=3 note=64 velocity=59 time=0
note_on channel=4 note=57 velocity=58 time=0
note_on channel=2 note=72 velocity=0 time=0
note_on channel=3 note=64 velocity=0 time=0
note_on channel=3 note=62 velocity=59 time=0
note_on channel=4 note=57 velocity=0 time=0
note_on channel=4 note=59 velocity=62 time=0
note_on channel=2 note=67 velocity=56 time=0
note_on channel=2 note=67 velocity=0 time=0.135135125
note_on channel=2 note=69 velocity=57 time=0
note_on channel=2 note=69 velocity=0 time=0
note_on channel=2 note=71 velocity=57 time=0
note_on channel=2 note=71 velocity=0 time=0.2884615
note_on channel=2 note=72 velocity=59 time=0
note_on channel=2 note=72 velocity=0 time=0.2884615
note_on channel=2 note=74 velocity=60 time=0
note_on channel=2 note=74 velocity=0 time=0.2884615
note_on channel=2 note=76 velocity=62 time=0
note_on channel=2 note=76 velocity=0 time=0.2884615
note_on channel=2 note=77 velocity=63 time=0
note_on channel=3 note=62 velocity=0 time=0
note_on channel=3 note=67 velocity=57 time=0
note_on channel=3 note=67 velocity=0 time=0
note_on channel=3 note=69 velocity=60 time=0
note_on channel=4 note=59 velocity=0 time=0
note_on channel=4 note=60 velocity=60 time=0
note_on channel=2 note=77 velocity=0 time=0.14423075
note_on channel=2 note=72 velocity=55 time=0
note_on channel=2 note=72 velocity=0 time=0.14423075
note_on channel=2 note=74 velocity=57 time=0
note_on channel=2 note=74 velocity=0 time=0.14423075
note_on channel=2 note=76 velocity=58 time=0
note_on channel=2 note=76 velocity=0 time=0.14423075
note_on channel=2 note=77 velocity=59 time=0
note_on channel=2 note=77 velocity=0 time=0.2884615
note_on channel=2 note=79 velocity=62 time=0
note_on channel=2 note=79 velocity=0 time=0
note_on channel=2 note=81 velocity=65 time=0
note_on channel=3 note=69 velocity=0 time=0
note_on channel=3 note=77 velocity=57 time=0
note_on channel=3 note=77 velocity=0 time=0.39651075
note_on channel=3 note=74 velocity=57 time=0
note_on channel=2 note=81 velocity=0 time=0
note_on channel=2 note=83 velocity=64 time=0
note_on channel=2 note=83 velocity=0 time=0.56561075
note_on channel=2 note=79 velocity=52 time=0
note_on channel=2 note=84 velocity=56 time=0
note_on channel=3 note=74 velocity=0 time=0
note_on channel=3 note=76 velocity=48 time=0
note_on channel=2 note=84 velocity=0 time=0
note_on channel=2 note=79 velocity=0 time=0
note_on channel=3 note=76 velocity=0 time=0
note_on channel=4 note=60 velocity=0 time=0
note_on channel=5 note=48 velocity=0 time=0